<svg width="811" height="144" viewBox="0 0 811 144" fill="none" xmlns="http://www.w3.org/2000/svg">
<g clip-path="url(#clip0_231_36)">
<path d="M48.5854 129.26L10.4895 86.0539C6.08468 81.041 0.608398 72.2088 0.608398 62.5412C0.608398 52.8736 6.14421 44.0414 10.4895 39.0286L31.978 14.6805C40.1924 5.43057 49.5974 -0.0596924 59.9547 -0.0596924C68.1691 -0.0596924 75.193 2.86447 80.4908 7.69828C86.5028 13.2482 90.2528 21.1256 90.729 29.6593H103.408C103.884 14.024 116.027 -0.0596924 134.301 -0.0596924C144.659 -0.0596924 154.063 5.43057 162.278 14.6805L201.981 59.7961C207.041 65.5251 212.636 73.5814 212.636 83.1894C212.636 92.0812 206.922 100.197 202.755 104.912L181.266 129.26C173.052 138.51 163.647 144 153.29 144C143.587 144 130.492 138.45 125.075 123.829C118.944 122.039 114.539 119.234 109.837 113.744C109.36 130.274 97.2172 144.06 78.9431 144.06C67.6334 144.06 57.0975 138.987 48.645 129.32L48.5854 129.26Z" fill="white"/>
</g>
<g clip-path="url(#clip1_231_36)">
<path d="M48.5854 129.26L10.4895 86.0539C6.08468 81.041 0.608398 72.2089 0.608398 62.5412C0.608398 52.8736 6.14421 44.0414 10.4895 39.0286L31.978 14.6805C40.1924 5.43057 49.5974 -0.0596924 59.9547 -0.0596924C68.1691 -0.0596924 75.193 2.86447 80.4908 7.69829C86.5028 13.2482 90.2528 21.1256 90.729 29.6593H103.408C103.884 14.024 116.027 -0.0596924 134.301 -0.0596924C144.659 -0.0596924 154.063 5.43057 162.278 14.6805L201.981 59.7961C207.041 65.5251 212.636 73.5814 212.636 83.1894C212.636 92.0812 206.922 100.197 202.755 104.912L181.266 129.26C173.052 138.51 163.647 144 153.29 144C143.587 144 130.492 138.45 125.075 123.829C118.944 122.039 114.539 119.234 109.837 113.744C109.36 130.274 97.2172 144.06 78.9431 144.06C67.6334 144.06 57.0975 138.987 48.645 129.32L48.5854 129.26ZM17.573 79.8475L39.0615 104.196C45.7282 111.715 52.6926 115.713 59.9547 115.713C73.1097 115.713 81.4432 105.688 81.4432 94.7667C81.4432 87.9038 77.2169 84.6813 71.9192 80.9813C70.6692 80.1459 69.7763 78.5943 69.7763 77.0427C69.7763 74.4766 71.8596 72.3282 74.3597 72.3282C75.3716 72.3282 76.5026 72.6863 77.8717 73.5814C81.9193 76.0282 87.2171 81.3991 89.2409 86.0539H105.075C107.158 81.4588 112.396 76.0282 116.444 73.5814C117.753 72.7459 118.884 72.3282 119.956 72.3282C122.515 72.3282 124.539 74.4766 124.539 77.0427C124.539 78.6539 123.587 80.1459 122.396 80.9813C117.099 84.6813 112.872 87.8442 112.872 94.7667C112.872 105.688 121.146 115.713 134.361 115.713C141.623 115.713 148.587 111.775 155.254 104.196L176.742 79.8475C180.254 75.9088 184.243 69.1057 184.243 62.6009C184.243 56.0961 180.195 49.293 176.742 45.3543L155.254 21.0062C148.587 13.4869 141.623 9.48859 134.361 9.48859C121.206 9.48859 112.872 19.5143 112.872 30.4351C112.872 37.298 117.099 40.5205 122.396 44.2205C123.646 45.0559 124.539 46.6075 124.539 48.1591C124.539 50.7252 122.456 52.8736 119.956 52.8736C118.944 52.8736 117.813 52.5155 116.444 51.6204C112.396 49.1736 107.098 43.8027 105.075 39.1479H89.2409C87.1575 43.743 81.9193 49.1736 77.8717 51.6204C76.5621 52.4558 75.4311 52.8736 74.3597 52.8736C71.8001 52.8736 69.7763 50.7252 69.7763 48.1591C69.7763 46.5479 70.7287 45.0559 71.9192 44.2205C77.2169 40.5205 81.4432 37.3576 81.4432 30.4351C81.4432 19.5143 73.1692 9.48859 59.9547 9.48859C52.6926 9.48859 45.7282 13.4273 39.0615 21.0062L17.573 45.3543C14.061 49.293 10.0729 56.0961 10.0729 62.6009C10.0729 69.1057 14.1205 75.9088 17.573 79.8475ZM35.5495 35.806L45.4306 24.7658C47.514 22.4981 50.6093 22.1401 52.5736 23.99C54.657 25.661 54.2403 28.8239 52.5736 30.7932L42.6925 42.0124C40.7282 44.1608 37.5138 44.3995 35.5495 42.6689C33.4661 40.8786 33.8828 37.656 35.5495 35.806ZM129.123 17.6643C129.777 17.3659 130.551 17.3062 131.206 17.1869C134.301 17.0079 136.563 18.9772 136.682 21.9014C136.801 24.0497 135.254 26.0787 133.111 26.4965C131.861 26.6755 131.504 27.3319 131.325 28.4658C131.146 30.5545 129.242 32.1658 126.98 32.2254C124.182 32.3448 122.099 30.2561 121.98 27.3916C121.98 22.7965 125.075 18.9772 129.123 17.6046V17.6643Z" fill="#242327"/>
</g>
<path d="M261.453 96.6799C258.38 95.7402 255.518 94.4048 252.922 92.7232C250.06 90.7943 248.576 88.5686 248.576 86.0462C248.576 84.8592 248.894 83.7711 249.477 82.7819C250.06 81.7927 250.908 81.0014 251.968 80.4079C253.028 79.8144 254.141 79.5176 255.412 79.5176C256.949 79.5176 258.539 80.0122 260.182 81.0014C262.513 82.3862 264.792 83.4249 267.071 84.2162C269.296 84.9581 271.416 85.3538 273.324 85.3538C275.231 85.3538 276.768 85.1065 277.722 84.5624C278.676 84.0184 279.153 83.326 279.153 82.3862C279.153 81.6444 278.888 81.0508 278.305 80.6057C277.722 80.21 276.874 79.8638 275.655 79.666L264.739 77.6382C259.917 76.7479 256.313 75.0663 253.929 72.5933C251.544 70.1204 250.378 66.9055 250.378 62.8993C250.378 59.5361 251.279 56.5685 253.081 53.9967C254.882 51.4248 257.426 49.4464 260.659 48.0616C263.891 46.6767 267.76 45.9348 272.105 45.9348C275.708 45.9348 278.994 46.4294 281.908 47.3691C284.823 48.3089 287.473 49.5453 289.698 50.9797C292.454 52.7602 293.885 55.0353 293.885 57.805C293.885 58.992 293.62 60.0801 293.143 61.0693C292.666 62.0585 291.924 62.8004 290.97 63.3939C290.016 63.938 288.903 64.2347 287.579 64.2347C286.519 64.2347 285.459 64.0369 284.346 63.6907C283.233 63.3444 282.067 62.8004 280.796 62.0585C279.047 61.1188 277.298 60.3274 275.549 59.635C273.801 58.992 272.105 58.6458 270.409 58.6458C269.084 58.6458 267.971 58.8931 267.177 59.3383C266.329 59.7834 265.905 60.4758 265.905 61.4155C265.905 62.2563 266.223 62.8993 266.859 63.295C267.495 63.6907 268.554 64.0863 270.038 64.3831L280.372 66.6088C283.286 67.2517 285.777 68.0925 287.843 69.1806C289.91 70.2687 291.553 71.7525 292.772 73.6814C293.991 75.6103 294.573 78.0338 294.573 81.0014C294.573 84.4635 293.62 87.4805 291.765 90.0524C289.91 92.6243 287.261 94.6027 283.869 95.9875C280.478 97.3724 276.503 98.0648 271.999 98.0648C268.024 98.0648 264.474 97.6197 261.347 96.6799H261.453Z" fill="#242327"/>
<path d="M313.598 95.4931C310.047 93.762 307.239 91.3385 305.331 88.1731C303.37 85.0077 302.417 81.2983 302.417 77.0943V53.156C302.417 51.7712 302.734 50.5347 303.37 49.496C304.006 48.4079 304.854 47.6166 306.02 47.0231C307.133 46.4296 308.458 46.1328 309.888 46.1328C312.061 46.1328 313.81 46.7758 315.135 48.0617C316.459 49.3477 317.095 51.0787 317.095 53.156V75.8083C317.095 77.4405 317.466 78.8748 318.261 80.1607C319.056 81.4467 320.116 82.4359 321.441 83.1283C322.818 83.8702 324.355 84.2164 326.051 84.2164C327.747 84.2164 329.336 83.8702 330.714 83.1283C332.092 82.3864 333.152 81.3972 333.894 80.1607C334.636 78.8748 335.007 77.4405 335.007 75.8083V53.156C335.007 51.0293 335.695 49.3477 337.02 48.0617C338.345 46.7758 340.094 46.1328 342.266 46.1328C343.697 46.1328 344.969 46.4296 346.135 47.0231C347.248 47.6166 348.149 48.4574 348.785 49.496C349.42 50.5841 349.738 51.7712 349.738 53.156V77.0943C349.738 81.2983 348.784 85.0077 346.824 88.1731C344.863 91.3385 342.108 93.8115 338.557 95.4931C335.007 97.1747 330.82 98.065 326.104 98.065C321.388 98.065 317.254 97.2242 313.651 95.4931H313.598Z" fill="#242327"/>
<path d="M361.873 95.9391C360.549 94.6531 359.86 92.9221 359.86 90.8448V54.0471C359.86 51.9204 360.549 50.2388 361.873 48.9528C363.198 47.6669 365 47.0239 367.173 47.0239H382.646C386.992 47.0239 390.807 47.7164 394.092 49.1507C397.378 50.585 399.975 52.6128 401.776 55.2836C403.578 57.9544 404.532 61.0209 404.532 64.5325C404.532 68.0441 403.631 71.16 401.776 73.7813C399.922 76.4027 397.378 78.48 394.092 79.9143C390.807 81.3486 386.992 82.041 382.646 82.041H374.485V90.8942C374.485 93.021 373.797 94.7026 372.472 95.9885C371.147 97.2745 369.345 97.9174 367.173 97.9174C365 97.9174 363.198 97.2745 361.873 95.9885V95.9391ZM383.971 69.0333C385.561 69.0333 386.78 68.5881 387.786 67.7473C388.793 66.9065 389.217 65.8184 389.217 64.483C389.217 63.1476 388.74 62.0595 387.786 61.2187C386.833 60.3779 385.561 59.9328 383.971 59.9328H374.485V69.0333H383.971Z" fill="#242327"/>
<path d="M413.594 95.0983C412.269 93.8123 411.58 92.0813 411.58 90.004V54.0471C411.58 51.9204 412.269 50.2388 413.594 48.9528C414.918 47.6669 416.72 47.0239 418.946 47.0239H445.336C446.767 47.0239 448.038 47.3207 449.151 47.8647C450.264 48.4088 451.112 49.2496 451.748 50.2388C452.384 51.2774 452.702 52.4644 452.702 53.7504C452.702 55.0363 452.384 56.2233 451.748 57.262C451.112 58.3006 450.264 59.092 449.151 59.636C448.038 60.1801 446.767 60.4768 445.336 60.4768H426.259V65.5217H443.799C445.124 65.5217 446.29 65.769 447.349 66.3625C448.409 66.9065 449.204 67.6484 449.84 68.6376C450.476 69.6268 450.741 70.6654 450.741 71.9019C450.741 73.1384 450.423 74.2265 449.84 75.1662C449.257 76.1059 448.409 76.8478 447.349 77.3919C446.29 77.9359 445.124 78.1832 443.799 78.1832H426.259V83.5248H445.389C446.819 83.5248 448.091 83.8216 449.204 84.3656C450.317 84.9097 451.218 85.7505 451.854 86.7397C452.49 87.7288 452.808 88.9653 452.808 90.2513C452.808 91.5372 452.49 92.7242 451.854 93.7629C451.218 94.8015 450.37 95.5929 449.204 96.1369C448.038 96.681 446.819 96.9777 445.389 96.9777H418.893C416.667 96.9777 414.865 96.3347 413.541 95.0488L413.594 95.0983Z" fill="#242327"/>
<path d="M464.254 95.9391C462.929 94.6531 462.24 92.9221 462.24 90.8448V54.0471C462.24 51.9204 462.929 50.2388 464.254 48.9528C465.579 47.6669 467.38 47.0239 469.553 47.0239H485.345C489.531 47.0239 493.24 47.7658 496.526 49.2496C499.811 50.7334 502.302 52.7612 504.104 55.3825C505.905 58.0039 506.806 61.0209 506.806 64.3841C506.806 67.3517 506.117 69.973 504.793 72.347C503.468 74.7211 501.507 76.6994 499.016 78.2327L505.323 86.8386C506.647 88.6191 507.283 90.3996 507.283 92.1802C507.283 93.1693 506.965 94.1091 506.276 94.9993C505.587 95.8896 504.74 96.582 503.627 97.1261C502.514 97.6701 501.401 97.9174 500.182 97.9174C498.963 97.9174 497.798 97.6701 496.791 97.1755C495.784 96.681 494.936 95.9391 494.247 94.9993L484.762 81.7443H476.866V90.8448C476.866 92.9715 476.177 94.6531 474.852 95.9391C473.527 97.225 471.726 97.868 469.553 97.868C467.38 97.868 465.579 97.225 464.254 95.9391ZM486.298 68.7365C487.835 68.7365 489.054 68.3408 490.061 67.5C491.068 66.6592 491.545 65.6206 491.545 64.3346C491.545 63.0487 491.068 61.9606 490.061 61.1693C489.054 60.3779 487.835 59.9328 486.298 59.9328H476.919V68.786H486.298V68.7365Z" fill="#242327"/>
<path d="M518.465 95.0487C517.14 93.7628 516.504 92.0812 516.504 89.9544V53.9976C516.504 51.9203 517.14 50.2387 518.465 48.9033C519.79 47.5679 521.486 46.9249 523.711 46.9249H542.47C546.392 46.9249 549.783 47.5679 552.645 48.8538C555.507 50.1398 557.732 51.9203 559.216 54.2449C560.7 56.5695 561.495 59.2403 561.495 62.2573C561.495 64.4829 560.912 66.4613 559.746 68.1429C558.58 69.8245 556.937 71.1105 554.712 71.9018C556.937 72.6437 558.633 73.8802 559.799 75.5618C560.965 77.2434 561.601 79.1723 561.601 81.2991C561.601 84.3655 560.859 87.0858 559.322 89.4598C557.785 91.8339 555.559 93.6639 552.698 94.9498C549.783 96.2358 546.392 96.9282 542.417 96.9282H523.658C521.486 96.9282 519.737 96.2358 518.412 94.9498L518.465 95.0487ZM542.47 66.9559C543.53 66.9559 544.431 66.6592 545.12 66.0162C545.809 65.3732 546.18 64.5819 546.18 63.6421C546.18 62.7024 545.809 61.8122 545.12 61.1197C544.431 60.4273 543.53 60.1305 542.47 60.1305H531.183V66.9559H542.47ZM542.629 83.8709C543.742 83.8709 544.59 83.5742 545.332 82.9312C546.021 82.2883 546.392 81.4474 546.392 80.3099C546.392 79.1723 546.021 78.381 545.332 77.738C544.643 77.095 543.742 76.7983 542.629 76.7983H531.183V83.8709H542.629Z" fill="#242327"/>
<path d="M573.523 95.9391C572.198 94.6531 571.509 92.9221 571.509 90.8448V54.0471C571.509 51.9204 572.198 50.2388 573.523 48.9528C574.848 47.6669 576.649 47.0239 578.822 47.0239H594.614C598.8 47.0239 602.51 47.7658 605.795 49.2496C609.028 50.7334 611.571 52.7612 613.373 55.3825C615.175 58.0039 616.076 61.0209 616.076 64.3841C616.076 67.3517 615.387 69.973 614.062 72.347C612.684 74.7211 610.776 76.6994 608.286 78.2327L614.592 86.8386C615.917 88.6191 616.552 90.3996 616.552 92.1802C616.552 93.1693 616.235 94.1091 615.546 94.9993C614.91 95.8896 614.009 96.582 612.896 97.1261C611.783 97.6701 610.67 97.9174 609.452 97.9174C608.233 97.9174 607.067 97.6701 606.06 97.1755C605.053 96.681 604.205 95.9391 603.516 94.9993L594.031 81.7443H586.135V90.8448C586.135 92.9715 585.446 94.6531 584.121 95.9391C582.797 97.225 580.995 97.868 578.822 97.868C576.649 97.868 574.848 97.225 573.523 95.9391ZM595.568 68.7365C597.104 68.7365 598.323 68.3408 599.33 67.5C600.284 66.6592 600.814 65.6206 600.814 64.3346C600.814 63.0487 600.337 61.9606 599.33 61.1693C598.323 60.3285 597.104 59.9328 595.568 59.9328H586.188V68.786H595.568V68.7365Z" fill="#242327"/>
<path d="M627.84 95.9382C626.515 94.6523 625.826 92.9212 625.826 90.8439V53.156C625.826 51.0293 626.515 49.3477 627.84 48.0617C629.165 46.7758 630.966 46.1328 633.139 46.1328C635.312 46.1328 637.113 46.7758 638.438 48.0617C639.763 49.3477 640.452 51.0787 640.452 53.156V90.8439C640.452 92.9707 639.763 94.6523 638.438 95.9382C637.113 97.2242 635.312 97.8671 633.139 97.8671C630.966 97.8671 629.165 97.2242 627.84 95.9382Z" fill="#242327"/>
<path d="M653.594 95.0983C652.27 93.8123 651.581 92.0813 651.581 90.004V54.0471C651.581 51.9204 652.27 50.2388 653.594 48.9528C654.919 47.6669 656.721 47.0239 658.947 47.0239H676.116C681.203 47.0239 685.708 48.0626 689.629 50.1893C693.55 52.3161 696.624 55.2342 698.797 59.0425C700.969 62.8509 702.082 67.1538 702.082 72.0503C702.082 76.9467 700.969 81.2992 698.797 85.0581C696.624 88.817 693.55 91.7845 689.629 93.9112C685.708 96.038 681.203 97.0766 676.116 97.0766H658.947C656.721 97.0766 654.919 96.4337 653.594 95.1477V95.0983ZM676.116 83.6732C678.077 83.6732 679.879 83.1786 681.468 82.14C683.058 81.1013 684.277 79.7659 685.178 77.9854C686.079 76.2049 686.503 74.2265 686.503 72.0008C686.503 69.7752 686.079 67.7968 685.178 66.0163C684.277 64.2357 683.058 62.8509 681.468 61.8617C679.879 60.8725 678.13 60.3285 676.116 60.3285H666.26V83.6237H676.116V83.6732Z" fill="#242327"/>
<path d="M721.318 94.8004C717.079 92.6242 713.793 89.6072 711.461 85.6999C709.13 81.7926 707.964 77.2918 707.964 72.247C707.964 67.2022 709.236 62.6519 711.726 58.6457C714.217 54.6395 717.661 51.5236 722.007 49.2979C726.352 47.0723 731.28 45.9347 736.738 45.9347C740.501 45.9347 743.945 46.3798 747.019 47.3195C750.092 48.2593 752.795 49.4463 755.074 50.9301C756.664 51.9687 757.723 53.0074 758.359 54.0955C758.995 55.1836 759.313 56.42 759.313 57.7554C759.313 58.9919 758.995 60.08 758.359 60.9703C757.723 61.8606 756.928 62.553 755.975 62.9981C754.968 63.4432 753.961 63.6905 752.848 63.6905C751.629 63.6905 750.516 63.5422 749.457 63.2454C748.45 62.9487 747.337 62.5035 746.118 61.8606C744.528 61.0692 743.045 60.4262 741.614 59.9811C740.183 59.536 738.381 59.3381 736.103 59.3381C733.612 59.3381 731.333 59.8822 729.373 60.9703C727.359 62.0584 725.822 63.5916 724.762 65.5205C723.649 67.4494 723.12 69.6256 723.12 72.0491C723.12 74.4726 723.649 76.5994 724.762 78.4788C725.875 80.3583 727.465 81.8915 729.479 82.9302C731.492 83.9688 733.93 84.5623 736.633 84.5623C742.303 84.5623 745.482 82.8807 746.065 79.5175H737.48C736.209 79.5175 734.99 79.2207 733.93 78.6767C732.817 78.1326 731.969 77.3413 731.333 76.4016C730.697 75.4618 730.379 74.3737 730.379 73.1867C730.379 71.1094 731.068 69.5267 732.393 68.3892C733.771 67.2516 735.467 66.7076 737.533 66.7076H754.12C755.392 66.7076 756.611 66.9548 757.67 67.4989C758.783 68.043 759.631 68.8343 760.32 69.8729C760.956 70.961 761.327 72.2964 761.327 73.8297C761.327 79.1713 760.267 83.6226 758.094 87.2331C755.922 90.8436 752.954 93.5144 749.192 95.295C745.429 97.0755 741.031 97.9658 736.156 97.9658C730.538 97.9658 725.61 96.8777 721.371 94.7015L721.318 94.8004Z" fill="#242327"/>
<path d="M771.766 95.0983C770.441 93.8123 769.752 92.0813 769.752 90.004V54.0471C769.752 51.9204 770.441 50.2388 771.766 48.9528C773.091 47.6669 774.893 47.0239 777.118 47.0239H803.508C804.939 47.0239 806.211 47.3207 807.324 47.8647C808.437 48.4088 809.284 49.2496 809.92 50.2388C810.556 51.228 810.874 52.4644 810.874 53.7504C810.874 55.0363 810.556 56.2233 809.92 57.262C809.284 58.3006 808.437 59.092 807.324 59.636C806.211 60.1801 804.939 60.4768 803.508 60.4768H784.431V65.5217H801.972C803.296 65.5217 804.462 65.769 805.522 66.3625C806.582 66.956 807.377 67.6484 808.013 68.6376C808.649 69.6268 808.914 70.6654 808.914 71.9019C808.914 73.1384 808.596 74.2265 808.013 75.1662C807.43 76.1059 806.582 76.8478 805.522 77.3919C804.462 77.9359 803.296 78.1832 801.972 78.1832H784.431V83.5248H803.561C804.992 83.5248 806.264 83.8216 807.377 84.3656C808.49 84.9097 809.39 85.7505 810.026 86.7397C810.662 87.7288 810.98 88.9653 810.98 90.2513C810.98 91.5372 810.662 92.7242 810.026 93.7629C809.39 94.8015 808.543 95.5929 807.377 96.1369C806.211 96.681 804.992 96.9777 803.561 96.9777H777.065C774.84 96.9777 773.038 96.3347 771.713 95.0488L771.766 95.0983Z" fill="#242327"/>
<defs>
<clipPath id="clip0_231_36">
<rect width="211.968" height="144" fill="white" transform="translate(0.608398)"/>
</clipPath>
<clipPath id="clip1_231_36">
<rect width="211.968" height="144" fill="white" transform="translate(0.608398)"/>
</clipPath>
</defs>
</svg>
