<svg width="25" height="21" viewBox="0 0 25 21" fill="none" xmlns="http://www.w3.org/2000/svg">
<path d="M15.303 20.7147C13.8104 20.7147 12.4567 20.2749 11.3919 19.352C11.3139 19.2842 11.2376 19.2141 11.1635 19.1412C7.67346 21.1375 4.1675 21.2491 1.97754 19.352C0.313422 17.9101 -0.331481 15.5868 0.161317 12.81C0.606261 10.3033 1.95018 7.66329 3.94473 5.37592C8.3121 0.368184 14.2895 -1.33923 17.5533 1.4888L15.6192 3.70896C13.5004 1.87279 8.93884 4.13111 6.16949 7.30608C4.52072 9.19694 3.41777 11.3339 3.06455 13.3233C2.88794 14.3186 2.7626 16.1377 3.91113 17.1324C5.1041 18.1664 7.33505 17.938 9.66972 16.6066C8.49441 12.7764 10.7567 8.2404 12.7866 5.90745C13.8588 4.67461 15.16 4.10661 16.4475 4.30715C18.0535 4.55782 19.2425 5.9855 19.3382 7.77837C19.385 8.64718 19.1878 9.55301 18.7366 10.5477C17.9299 12.3264 16.8401 14.0269 15.5856 15.4654C14.9817 16.1582 14.3373 16.7969 13.6588 17.3757C15.8932 18.7424 20.1439 16.553 22.7753 13.5353L25 15.4654C22.058 18.8393 18.3846 20.7153 15.3025 20.7153L15.303 20.7147ZM15.9411 7.20866C15.7036 7.20866 15.3549 7.44224 15.0142 7.8342C13.6213 9.43565 12.1753 12.258 12.3012 14.6382C12.6675 14.2924 13.0213 13.9238 13.3603 13.5347C14.4296 12.3087 15.3594 10.8565 16.0499 9.33481C16.3017 8.77935 16.4139 8.3213 16.3934 7.93447C16.3786 7.65873 16.2442 7.25196 15.9912 7.21265C15.9752 7.2098 15.9582 7.20866 15.9411 7.20866Z" fill="black"/>
</svg>
