<svg width="26" height="26" viewBox="0 0 26 26" fill="none" xmlns="http://www.w3.org/2000/svg">
<path fill-rule="evenodd" clip-rule="evenodd" d="M12.665 0.920654C19.5686 0.920654 25.165 6.5171 25.165 13.4207C25.165 16.0754 24.3375 18.5368 22.9264 20.5611C22.8564 20.6611 22.7488 20.8087 22.6029 21.0039C22.5035 20.813 22.4289 20.6699 22.3791 20.5746C20.8994 17.735 18.6796 13.4756 15.72 7.79644C15.3455 7.07784 14.6025 6.62718 13.7922 6.62718H10.3002C10.2128 6.62718 10.1266 6.64827 10.0491 6.6887C9.78289 6.82741 9.67957 7.15563 9.81828 7.42183C13.6631 14.7996 16.5468 20.3329 18.4692 24.0218C18.512 24.1039 18.5761 24.2269 18.6617 24.391C18.4988 24.4785 18.376 24.5431 18.2934 24.5849C16.6018 25.4394 14.6896 25.9207 12.665 25.9207C10.6751 25.9207 8.79377 25.4556 7.12377 24.6285C7.0366 24.5853 6.90715 24.5183 6.73543 24.4275C6.82469 24.2562 6.89164 24.1277 6.93627 24.0421C8.07424 21.8584 9.78121 18.5828 12.0572 14.2153L12.0754 14.1769C12.1857 13.9183 12.0799 13.6143 11.8264 13.4822C11.7488 13.4417 11.6627 13.4207 11.5752 13.4207H8.08328L8.00508 13.4221C7.22541 13.45 6.51783 13.8945 6.15543 14.5899C4.75588 17.2754 3.70621 19.2894 3.00643 20.6322C2.9557 20.7294 2.87963 20.8755 2.77816 21.0701C2.63646 20.8832 2.53166 20.7419 2.46373 20.6462C1.01605 18.606 0.165039 16.1127 0.165039 13.4207C0.165039 6.5171 5.76148 0.920654 12.665 0.920654Z" fill="url(#paint0_linear_1298_327)"/>
<defs>
<linearGradient id="paint0_linear_1298_327" x1="25.165" y1="0.920654" x2="0.165039" y2="25.9207" gradientUnits="userSpaceOnUse">
<stop stop-color="#21D4FD"/>
<stop offset="1" stop-color="#B721FF"/>
</linearGradient>
</defs>
</svg>
