<svg width="43" height="26" viewBox="0 0 43 26" fill="none" xmlns="http://www.w3.org/2000/svg">
<path fill-rule="evenodd" clip-rule="evenodd" d="M17.5684 14.3098L19.2765 14.1688L18.4146 11.8824L17.5684 14.3098ZM23.104 10.4628C23.1599 10.5154 23.217 10.5847 23.2756 10.6708C23.334 10.7569 23.3945 10.8467 23.4569 10.9403L25.6836 14.1233V10.7254C25.6836 10.5047 25.7311 10.3351 25.826 10.2168C25.8285 10.2137 25.8312 10.211 25.8338 10.208L23.0896 10.4506C23.0944 10.4548 23.0994 10.4585 23.104 10.4628ZM23.0896 10.4506C23.0866 10.4479 23.0847 10.4463 23.0832 10.445C23.0859 10.4473 23.0896 10.4506 23.0896 10.4506ZM16.2645 10.1324L16.8698 10.0777C17.0615 10.0603 17.1904 9.92417 17.1904 9.73938V6.43843C17.1904 6.2839 17.2514 6.1345 17.3676 5.99971C17.4843 5.87176 17.6292 5.79932 17.7987 5.78396L18.6126 5.71031C18.7756 5.69558 18.9155 5.74347 19.0328 5.85777C19.1507 5.96581 19.2098 6.09993 19.2098 6.25566V9.55657C19.2098 9.7414 19.3392 9.85412 19.5309 9.83678L20.1464 9.78106C20.1768 9.77829 20.2063 9.76872 20.2342 9.75395C20.4177 9.65609 20.4564 9.53153 20.4564 9.44377V6.14282C20.4564 5.98767 20.5173 5.83831 20.6337 5.70406C20.7505 5.57607 20.8954 5.50367 21.0647 5.48835L21.8783 5.41471C22.0429 5.3998 22.1841 5.44766 22.3094 5.56121C22.4272 5.66925 22.4866 5.80333 22.4866 5.95906V9.26001C22.4866 9.4448 22.6157 9.55756 22.8074 9.54022L23.4122 9.48549C23.6039 9.46811 23.7329 9.332 23.7329 9.14721V5.84626C23.7329 5.35477 23.5451 4.96672 23.1775 4.69454C22.8219 4.42067 22.3845 4.30567 21.8783 4.35149L21.0646 4.42514C20.5849 4.46856 20.1719 4.64102 19.8332 4.93853C19.496 4.7022 19.0862 4.60422 18.6126 4.6471L17.7987 4.72079C17.297 4.76616 16.8572 4.95989 16.489 5.29996C16.1327 5.63771 15.9441 6.0705 15.9441 6.55127V9.85222C15.9441 10.0371 16.0729 10.1498 16.2645 10.1324ZM32.5895 8.19469C32.9446 8.46728 33.3815 8.58294 33.8883 8.53707C34.5903 8.47353 35.122 8.35721 35.5171 8.18194C35.6537 8.11976 35.7323 8.00493 35.7323 7.86663V7.4679C35.7327 7.20715 35.5152 7.14613 35.3613 7.19862C34.9889 7.32186 34.5075 7.40891 33.8883 7.46492C33.7191 7.48024 33.5741 7.4342 33.4572 7.32662C33.34 7.21849 33.2803 7.08213 33.2803 6.91978V4.99077C33.2803 4.82916 33.34 4.6813 33.4571 4.55268C33.5746 4.42402 33.7195 4.35158 33.8883 4.3363C34.5067 4.28034 35.002 4.28029 35.359 4.33572C35.5347 4.36391 35.7323 4.25831 35.7323 3.99963V3.60078C35.7323 3.46968 35.6621 3.37054 35.5261 3.32347C35.1337 3.21957 34.5978 3.19999 33.8883 3.26423C33.382 3.31006 32.9412 3.5083 32.5789 3.85288C32.2225 4.19046 32.0339 4.62351 32.0339 5.10358V7.03258C32.0339 7.52056 32.2206 7.91108 32.5895 8.19469ZM40.3635 3.13872C40.0076 2.86489 39.5705 2.74989 39.0642 2.79567C38.4302 2.85305 37.9525 2.93609 37.6369 3.04541C37.4116 3.13139 37.3874 3.29958 37.3874 3.36772V3.78474C37.3874 3.86563 37.4088 3.93232 37.4505 3.98291C37.5039 4.04695 37.5838 4.0775 37.6756 4.06918C37.6908 4.06781 37.7277 4.06131 37.7426 4.05684C37.9871 3.98233 38.4318 3.91613 39.0642 3.85888C39.2272 3.84415 39.3674 3.89208 39.4847 4.00634C39.6027 4.11434 39.6619 4.24846 39.6619 4.40419V4.68001L38.2505 4.80776C37.7433 4.85367 37.303 5.05129 36.9407 5.39583C36.5794 5.73908 36.396 6.15681 36.396 6.63766C36.396 7.12489 36.5828 7.5158 36.9513 7.79985C37.3068 8.07236 37.7438 8.18798 38.2505 8.14216L40.5981 7.92967C40.7808 7.91315 40.9084 7.77411 40.9084 7.59234V4.29135C40.9084 3.81128 40.7199 3.41243 40.3635 3.13872ZM39.6619 6.94221L38.2505 7.06996C38.0812 7.08528 37.9364 7.0392 37.8196 6.93162C37.7019 6.82353 37.6423 6.68722 37.6423 6.52482C37.6423 6.36896 37.7019 6.22404 37.8196 6.0955C37.9364 5.96751 38.0812 5.89506 38.2505 5.87975L39.6619 5.75196V6.94221ZM29.946 10.7244L29.1816 10.7874V14.6647L30.059 14.5923C30.2513 14.5764 30.4022 14.5588 30.5114 14.5394C30.6205 14.52 30.7336 14.4847 30.8506 14.4335C30.9676 14.3823 31.069 14.3155 31.1548 14.233C31.5422 13.8737 31.7359 13.294 31.7359 12.4939C31.7359 11.9302 31.6506 11.5151 31.4805 11.2485C31.3101 10.982 31.1002 10.8208 30.8506 10.7647C30.6011 10.7087 30.2994 10.6952 29.946 10.7244ZM13.6758 4.22818L14.688 4.13653C14.8797 4.11914 15.0087 3.9832 15.0087 3.79828V3.33448C15.0087 3.18562 14.9094 3.04442 14.688 3.0645L13.6758 3.15611C13.4545 3.17614 13.3554 3.33531 13.3554 3.48417V3.94797C13.3554 4.13292 13.4841 4.24552 13.6758 4.22818ZM24.3546 4.52378C24.4266 4.48438 24.486 4.43069 24.534 4.36975L25.7583 5.6305L25.0281 5.87743C25.0048 5.80664 24.9629 5.74289 24.9012 5.69541C24.7206 5.5564 24.4491 5.6007 24.2935 5.79472C24.1383 5.9887 24.1582 6.25864 24.3386 6.39773C24.5187 6.53662 24.791 6.49174 24.9458 6.29793C24.9886 6.24482 25.0169 6.18612 25.0331 6.12535L25.7657 6.46637C25.7656 6.4809 25.7635 6.4951 25.7635 6.50959C25.7635 8.07696 27.035 9.23257 28.6034 9.09058C30.1721 8.94859 31.4437 7.56278 31.4437 5.99541C31.4437 4.42804 30.172 3.27255 28.6034 3.41454C28.0156 3.46778 27.4693 3.69578 27.0163 4.04272L26.3976 3.61428C26.4432 3.54287 26.4728 3.46078 26.4771 3.37302C26.4892 3.11955 26.2941 2.92214 26.0408 2.93228C25.7883 2.94337 25.5732 3.15809 25.5609 3.4121C25.549 3.66552 25.744 3.86294 25.9969 3.85189C26.066 3.84924 26.1317 3.83003 26.192 3.79998L26.3273 4.64892L24.6542 4.08139C24.6653 3.98825 24.653 3.89328 24.6117 3.80706C24.491 3.55549 24.1802 3.46856 23.9175 3.61262C23.6549 3.75668 23.5398 4.07791 23.6606 4.32943C23.781 4.58099 24.0925 4.66826 24.3546 4.52378ZM29.2339 7.21982C29.4422 7.20098 29.6103 7.35493 29.6103 7.56208C29.6103 7.77009 29.4422 7.95389 29.2339 7.97276C29.0256 7.9916 28.8574 7.83823 28.8574 7.63026C28.8575 7.42307 29.0256 7.23869 29.2339 7.21982ZM27.9241 7.33841C28.1325 7.31954 28.3009 7.47345 28.3009 7.68059C28.3009 7.88857 28.1325 8.0724 27.9241 8.09128C27.7158 8.11016 27.5476 7.95675 27.5476 7.74881C27.5476 7.54163 27.7158 7.35721 27.9241 7.33841ZM30.8064 9.76719C30.7967 9.76686 30.7925 9.7667 30.7911 9.76665C30.7932 9.76674 30.8002 9.76699 30.8064 9.76719ZM28.4692 9.95732C28.446 9.96457 28.4236 9.97227 28.4023 9.98088L28.4692 9.97496V9.95732ZM30.8159 9.76748C30.8132 9.7674 30.8118 9.76736 30.8096 9.76728C30.8131 9.7674 30.8159 9.76748 30.8159 9.76748ZM38.1431 13.797C38.1408 13.8027 38.1382 13.8089 38.1353 13.8159C38.1369 13.812 38.1398 13.805 38.1431 13.797ZM37.2227 14.7844C36.8796 14.9686 36.4727 15.0801 36.0022 15.1189C35.438 15.1655 34.9727 15.0974 34.6061 14.9146C34.3461 14.7828 34.1348 14.5956 33.9723 14.3532C33.8098 14.1107 33.7286 13.8686 33.7286 13.627C33.7286 13.4867 33.7774 13.3626 33.8748 13.2545C33.9723 13.1465 34.0964 13.0862 34.2472 13.0737C34.3694 13.0637 34.4728 13.0941 34.5573 13.165C34.6417 13.236 34.7139 13.3457 34.7737 13.494C34.8464 13.6699 34.9251 13.8154 35.0096 13.9305C35.0941 14.0457 35.213 14.1365 35.3664 14.203C35.5197 14.2696 35.7213 14.2926 35.9709 14.272C36.314 14.2437 36.5928 14.1408 36.8073 13.9633C37.0219 13.7859 37.1291 13.5777 37.1291 13.3386C37.1291 13.1491 37.0712 12.9999 36.9556 12.8912C36.8398 12.7826 36.6904 12.7046 36.5071 12.6574C36.3238 12.6102 36.0787 12.5641 35.772 12.5193C35.3612 12.4572 35.0174 12.3731 34.7405 12.2674C34.4637 12.1616 34.2439 12.0044 34.0815 11.7957C33.9189 11.587 33.8377 11.3177 33.8377 10.9878C33.8377 10.6734 33.9235 10.3871 34.0951 10.1287C34.2667 9.87043 34.5149 9.66221 34.8399 9.50421C34.931 9.45995 35.027 9.421 35.127 9.38631L30.8158 9.76748C30.9736 9.77262 31.1194 9.78652 31.2523 9.80995C31.533 9.85955 31.7878 9.97492 32.0166 10.1561C32.6119 10.6161 32.9096 11.3657 32.9096 12.4048C32.9096 12.7477 32.8796 13.0633 32.8199 13.3513C32.7601 13.6394 32.6678 13.9023 32.5431 14.1398C32.4182 14.3775 32.2583 14.594 32.0634 14.7893C31.9099 14.9397 31.7422 15.0639 31.5603 15.162C31.3783 15.2602 31.1827 15.3348 30.9734 15.3858C30.7641 15.4368 30.5281 15.4732 30.2656 15.4949L28.7564 15.6194C28.5458 15.6368 28.3872 15.6181 28.2807 15.5632C28.174 15.5084 28.1045 15.4244 28.072 15.3116C28.0395 15.1987 28.0232 15.05 28.0232 14.8655V10.6765C28.0232 10.4271 28.0792 10.242 28.191 10.121C28.2451 10.0625 28.3158 10.0159 28.4022 9.98092L26.5916 10.141C26.5956 10.145 26.5999 10.1485 26.6039 10.1526C26.7 10.2552 26.7481 10.4168 26.7481 10.6375V15.1305C26.7481 15.6319 26.5401 15.8997 26.1242 15.934C26.0202 15.9426 25.9266 15.9353 25.8434 15.9124C25.7602 15.8894 25.6822 15.8484 25.6095 15.7895C25.5366 15.7306 25.469 15.6602 25.4067 15.5782C25.3443 15.4963 25.2819 15.4126 25.2195 15.3267L23.0474 12.1782V15.5255C23.0474 15.7437 22.9967 15.9129 22.8953 16.0329C22.7939 16.1529 22.6638 16.2196 22.5053 16.2326C22.3415 16.2461 22.2102 16.2005 22.1115 16.0956C22.0126 15.9907 21.9633 15.8306 21.9633 15.6149V11.2077C21.9633 11.0207 21.984 10.8722 22.0256 10.7622C22.0611 10.6753 22.1136 10.5983 22.1826 10.5308L18.9739 10.8145C19.0167 10.8499 19.0546 10.8898 19.0873 10.9345C19.1536 11.0252 19.2094 11.1239 19.2549 11.2305C19.3004 11.3372 19.3583 11.4798 19.4285 11.6584L20.9221 15.2215C21.0391 15.4924 21.0976 15.6915 21.0976 15.8188C21.0976 15.9513 21.0423 16.0773 20.9318 16.1968C20.8214 16.3163 20.6881 16.3825 20.5321 16.3954C20.4411 16.403 20.3631 16.3931 20.2982 16.366C20.2332 16.3389 20.1786 16.2993 20.1344 16.2471C20.0901 16.1949 20.0427 16.1131 19.992 16.0016C19.9413 15.8903 19.8978 15.7918 19.8614 15.7065L19.5884 15.0121L17.2642 15.2038L16.9912 15.9589C16.8846 16.2535 16.7936 16.4539 16.7183 16.5601C16.6428 16.6662 16.5194 16.7265 16.3478 16.7407C16.2022 16.7527 16.0735 16.71 15.9617 16.6127C15.8499 16.5155 15.7941 16.3993 15.7941 16.2642C15.7941 16.1862 15.807 16.1047 15.833 16.0193C15.859 15.9341 15.9019 15.8149 15.9617 15.662L17.4241 11.8316C17.4656 11.7217 17.5157 11.5896 17.5742 11.4354C17.6328 11.2812 17.6951 11.152 17.7614 11.0478C17.7926 10.9987 17.8286 10.9536 17.869 10.9122L14.1174 11.2439C14.1492 11.2532 14.1805 11.2632 14.2108 11.2745C14.3901 11.3351 14.5487 11.4298 14.6865 11.5587C14.8243 11.6876 14.9289 11.842 15.0004 12.0218C15.0719 12.2017 15.1077 12.3955 15.1077 12.6033C15.1077 13.0294 14.9874 13.3796 14.7469 13.6541C14.5064 13.9285 14.1418 14.1391 13.6531 14.286C13.8584 14.3781 14.0548 14.523 14.242 14.7205C14.4292 14.9181 14.5962 15.131 14.7431 15.3592C14.8899 15.5874 15.0044 15.7949 15.0862 15.9816C15.1682 16.1684 15.2091 16.2982 15.2091 16.3709C15.2091 16.4463 15.185 16.5229 15.1369 16.6009C15.0888 16.6789 15.0232 16.7428 14.94 16.7925C14.8567 16.8422 14.7606 16.8716 14.6514 16.8807C14.5214 16.8914 14.4122 16.8698 14.3239 16.8161C14.2354 16.7624 14.1594 16.6913 14.0957 16.6031C14.032 16.5148 13.9456 16.3842 13.8364 16.2114L13.3723 15.4781C13.2059 15.2087 13.0571 15.0054 12.9258 14.8682C12.7945 14.7309 12.6612 14.6406 12.5261 14.5972C12.3909 14.5538 12.2206 14.5406 12.0153 14.5575L11.6097 14.591V16.4263C11.6097 16.6679 11.5564 16.8503 11.4498 16.9734C11.3432 17.0965 11.2041 17.1651 11.0326 17.1793C10.8479 17.1945 10.705 17.1465 10.6036 17.0354C10.5022 16.9243 10.4515 16.7532 10.4515 16.5219V12.1264C10.4515 11.877 10.5074 11.6919 10.6192 11.5709C10.6255 11.5641 10.6329 11.558 10.6396 11.5514L8.35081 11.7538C8.40574 11.7737 8.45877 11.7964 8.50948 11.823C8.64463 11.8923 8.76423 11.9845 8.86826 12.0992C8.9722 12.2141 9.05151 12.344 9.10612 12.4888C9.16072 12.6337 9.18804 12.7893 9.18804 12.9555C9.18804 13.527 8.90199 13.9688 8.33011 14.281C9.0814 14.458 9.45711 14.892 9.45711 15.583C9.45711 15.9026 9.37519 16.197 9.21143 16.4664C9.04762 16.7359 8.82665 16.9431 8.54851 17.0881C8.37432 17.1752 8.17413 17.2431 7.94794 17.2916C7.72176 17.3402 7.45786 17.3768 7.15629 17.4017L5.40922 17.5459C5.15699 17.5667 4.97696 17.525 4.86912 17.4209C4.85873 17.4109 4.84896 17.3999 4.83957 17.3885V17.6148C4.83957 17.6148 4.86118 17.6565 4.90323 17.6675C6.33607 18.0428 31.4743 24.6285 31.4743 24.6285L38.1339 14.1407V13.8191C38.0977 13.906 38.0552 13.9907 38.0046 14.0731C37.8265 14.3632 37.5659 14.6002 37.2227 14.7844ZM8.35081 11.7538C8.34836 11.753 8.34708 11.7525 8.34518 11.7518C8.34832 11.7529 8.35081 11.7538 8.35081 11.7538ZM14.4899 5.02029L13.8742 5.07605C13.6528 5.09608 13.5536 5.25579 13.5536 5.40481V10.0686C13.5536 10.2534 13.6826 10.3662 13.8742 10.3488L14.4899 10.2931C14.6814 10.2758 14.8103 10.1397 14.8103 9.95484V5.29102C14.8103 5.14203 14.7112 5.00021 14.4899 5.02029ZM38.0793 10.3858C38.0237 10.3858 38.0217 10.4253 38.0217 10.4253C38.0218 10.4302 38.0222 10.435 38.0222 10.4399C38.0222 10.5776 37.9734 10.7057 37.8759 10.8241C37.7784 10.9426 37.6569 11.0078 37.5113 11.0198C37.3787 11.0308 37.2779 11.006 37.2091 10.9454C37.1401 10.8848 37.0654 10.7826 36.9848 10.6385C36.8808 10.4315 36.756 10.2736 36.6104 10.1648C36.4648 10.056 36.2308 10.0149 35.9085 10.0415C35.6095 10.0662 35.3684 10.1517 35.1851 10.2979C35.0018 10.4443 34.9101 10.6096 34.9101 10.7941C34.9101 10.9084 34.9414 11.0046 35.0038 11.0825C35.0662 11.1606 35.1519 11.2249 35.2611 11.2756C35.3704 11.3265 35.4808 11.3641 35.5926 11.3886C35.7044 11.4131 35.889 11.4473 36.1464 11.491C36.4687 11.5398 36.7606 11.5988 37.0219 11.6681C37.2832 11.7375 37.5054 11.8296 37.6887 11.9443C37.872 12.0591 38.0149 12.2116 38.1176 12.4019C38.1234 12.4126 38.1284 12.4239 38.1339 12.4349V10.4254C38.1339 10.4253 38.1267 10.3858 38.0793 10.3858ZM6.76477 10.6832V7.38221C6.76477 6.90214 6.57629 6.50329 6.21966 6.22958C5.86383 5.95575 5.42644 5.84075 4.92041 5.88654C4.28639 5.94391 3.80873 6.02695 3.49279 6.13628C3.26768 6.2223 3.24351 6.39045 3.24351 6.45859V6.87561C3.24351 6.9565 3.26495 7.02318 3.30643 7.07377C3.35991 7.13781 3.43993 7.16836 3.53175 7.16004C3.54686 7.15867 3.58378 7.15217 3.59856 7.1477C3.8435 7.07315 4.28797 7.007 4.92041 6.94975C5.08318 6.93501 5.22351 6.98295 5.34112 7.0972C5.45868 7.20524 5.51805 7.33933 5.51805 7.49506V7.77092L4.10678 7.89862C3.59976 7.94453 3.15923 8.14216 2.79714 8.48661C2.43538 8.82995 2.25195 9.24767 2.25195 9.72849C2.25195 10.2157 2.43894 10.607 2.80769 10.8906C3.16295 11.1632 3.59997 11.2788 4.10678 11.2329L6.45438 11.0205C6.63718 11.0039 6.76477 10.8649 6.76477 10.6832ZM5.518 10.0331L4.10674 10.1608C3.93747 10.1761 3.79238 10.1301 3.67585 10.0225C3.55787 9.91444 3.49851 9.77804 3.49851 9.61568C3.49851 9.45983 3.55787 9.3149 3.67585 9.18637C3.79238 9.05841 3.93747 8.98593 4.10674 8.97061L5.518 8.84286V10.0331ZM11.6097 13.761L12.647 13.6755C12.9252 13.6525 13.1592 13.6092 13.3489 13.5454C13.5387 13.4817 13.6837 13.3879 13.7838 13.264C13.8838 13.1402 13.9339 12.9769 13.9339 12.7743C13.9339 12.6159 13.8935 12.4795 13.813 12.3653C13.7324 12.2512 13.6206 12.1702 13.4776 12.1222C13.3424 12.0763 13.0759 12.0696 12.6782 12.1024L11.6097 12.1905V13.761H11.6097ZM8.22877 10.8599L8.83406 10.8051C9.02568 10.7877 9.1543 10.6517 9.1543 10.4668V7.16588C9.1543 7.01139 9.21519 6.86199 9.33164 6.72708C9.44838 6.59917 9.59326 6.52672 9.76253 6.51141L10.5766 6.43772C10.7396 6.42299 10.8793 6.47096 10.9969 6.58518C11.1146 6.69322 11.174 6.8273 11.174 6.98303V10.284C11.174 10.4688 11.303 10.5815 11.4947 10.5642L12.1106 10.5084C12.293 10.492 12.4206 10.3529 12.4206 10.1711V6.87019C12.4206 6.37873 12.2327 5.99073 11.8652 5.71851C11.5096 5.44464 11.0761 5.32931 10.5766 5.37451L9.76253 5.4482C9.26127 5.49361 8.82127 5.68734 8.4531 6.02741C8.09668 6.36516 7.90812 6.79795 7.90812 7.27872V10.5797C7.90816 10.7644 8.03711 10.8772 8.22877 10.8599ZM7.97911 14.9919C7.77636 14.8788 7.47342 14.8388 7.07052 14.872L5.86552 14.9714V16.6392L7.10951 16.5366C7.89202 16.472 8.28333 16.1579 8.28333 15.5941C8.28329 15.3058 8.18191 15.1051 7.97911 14.9919ZM5.86548 14.1414L6.92621 14.0539C7.21478 14.0301 7.43765 13.9844 7.595 13.9169C7.75226 13.8494 7.87252 13.7356 7.95572 13.5754C8.02067 13.4609 8.05321 13.3361 8.05321 13.2011C8.05321 12.9127 7.95047 12.7296 7.74514 12.6517C7.53978 12.5738 7.2265 12.5523 6.80533 12.587L5.86552 12.6645V14.1414H5.86548Z" fill="#419FE9"/>
</svg>
