<svg width="26" height="26" viewBox="0 0 26 26" fill="none" xmlns="http://www.w3.org/2000/svg">
<g clip-path="url(#clip0_1107_651)">
<path d="M22.4814 5.6222L14.5222 1.40269C13.5449 0.883428 12.3799 0.883428 11.4024 1.39832L3.36042 5.6353C2.14736 6.364 1.01284 7.22362 0.964844 9.72828V11.7485H4.09348V8.98648L12.9645 4.25643L21.7701 8.98648V11.7485H24.8987V9.72828C24.8464 7.21053 23.7031 6.35528 22.4814 5.6222Z" fill="#356DF3"/>
<path d="M21.7657 18.0405L14.5266 22.0942V18.8215C17.0706 18.2238 18.7462 16.151 18.7462 13.3803C18.7462 10.0203 16.4247 7.7644 12.9645 7.7644C9.50424 7.7644 7.18286 10.0203 7.18286 13.3803C7.18286 16.1554 8.85408 18.2238 11.4024 18.8215V22.0985L4.09784 18.0405V15.0209H0.964844V17.0369C1.01721 19.5372 2.14736 20.4012 3.36042 21.1299L11.4024 25.3668C12.3799 25.8818 13.5492 25.8818 14.5222 25.3625L22.477 21.1429C23.6987 20.4143 24.8464 19.5547 24.8944 17.0369V15.0209H21.7657V18.0405ZM10.089 13.3803C10.089 11.5388 11.11 10.5265 12.9645 10.5265C14.819 10.5265 15.8401 11.5388 15.8401 13.3803C15.8401 15.1649 14.7666 16.234 12.9645 16.234C11.1624 16.234 10.089 15.1693 10.089 13.3803Z" fill="#356DF3"/>
</g>
<defs>
<clipPath id="clip0_1107_651">
<rect width="25" height="25" fill="white" transform="translate(0.27832 0.920654)"/>
</clipPath>
</defs>
</svg>
