<svg width="151" height="152" viewBox="0 0 151 152" fill="none" xmlns="http://www.w3.org/2000/svg">
<rect x="0.691995" y="1.06309" width="149.758" height="149.758" rx="74.8788" fill="white" fill-opacity="0.3"/>
<rect x="0.691995" y="1.06309" width="149.758" height="149.758" rx="74.8788" stroke="url(#paint0_linear_945_558)" stroke-width="1.00508"/>
<path d="M89.1041 70.9208L97.9263 55.9508L121.706 92.9883L121.717 100.096L121.64 51.1849C121.583 49.9893 120.948 48.8956 119.936 48.2505L77.1235 23.6243C76.1226 23.1319 74.852 23.1376 73.8523 23.6399C73.7172 23.7072 73.59 23.7809 73.4693 23.8613L73.3198 23.9551L31.7642 48.0363L31.6031 48.1095C31.3957 48.2048 31.1859 48.326 30.9894 48.4668C30.2013 49.0317 29.6783 49.8673 29.509 50.8046C29.4835 50.9466 29.4647 51.0911 29.4561 51.2374L29.5214 91.0954L51.6708 56.7646C54.4596 52.2125 60.5352 50.7462 66.1756 50.8259L72.7953 51.0006L33.7904 113.553L38.3883 116.2L77.8601 51.0641L95.3069 51.0008L55.9368 117.781L72.3434 127.217L74.3036 128.345C75.1328 128.682 76.1104 128.699 76.9465 128.397L120.36 103.238L112.06 108.047L89.1041 70.9208ZM92.4698 119.4L75.8991 93.3926L86.0146 76.2276L107.777 110.529L92.4698 119.4Z" fill="#2D374B"/>
<path d="M75.9014 93.3918L92.4718 119.4L107.78 110.529L86.0166 76.2268L75.9014 93.3918Z" fill="#28A0F0"/>
<path d="M121.719 100.096L121.707 92.9877L97.9276 55.9502L89.1055 70.9202L112.061 108.046L120.361 103.237C121.175 102.575 121.668 101.605 121.72 100.558L121.719 100.096Z" fill="#28A0F0"/>
<path d="M22.0703 106.799L33.7912 113.554L72.7958 51.001L66.1761 50.8263C60.5358 50.7466 54.4599 52.2129 51.6713 56.7651L29.5219 91.0958L22.0703 102.545V106.799Z" fill="white"/>
<path d="M95.3073 51.0002L77.8604 51.0636L38.3887 116.2L52.1853 124.143L55.9372 117.78L95.3073 51.0002Z" fill="white"/>
<path d="M129.07 50.91C128.924 47.2613 126.949 43.9211 123.854 41.9765L80.481 17.0335C77.4199 15.4923 73.596 15.4903 70.5295 17.0326C70.167 17.2154 28.35 41.4675 28.35 41.4675C27.7713 41.7452 27.2138 42.0757 26.6895 42.4511C23.9271 44.4308 22.2433 47.5075 22.0703 50.8875V102.544L29.5219 91.0946L29.4568 51.2366C29.4655 51.0909 29.4838 50.9474 29.5098 50.8058C29.6783 49.868 30.2019 49.0314 30.9902 48.4661C31.1869 48.3253 73.7182 23.7064 73.8533 23.6389C74.853 23.1368 76.1236 23.1309 77.1245 23.6233L119.937 48.2491C120.949 48.8941 121.584 49.9878 121.641 51.1834V100.558C121.589 101.605 121.175 102.575 120.361 103.236L112.061 108.046L107.778 110.528L92.4708 119.399L76.9473 128.395C76.1112 128.697 75.1336 128.68 74.3044 128.343L55.9376 117.779L52.1857 124.143L68.6913 133.646C69.2371 133.956 69.7234 134.231 70.1225 134.455C70.7403 134.802 71.1615 135.034 71.3102 135.106C72.4833 135.676 74.1713 136.007 75.6923 136.007C77.0869 136.007 78.4468 135.751 79.7335 135.247L124.823 109.135C127.411 107.13 128.933 104.106 129.07 100.83V50.91Z" fill="#96BEDC"/>
<defs>
<linearGradient id="paint0_linear_945_558" x1="75.5708" y1="0.560547" x2="75.5708" y2="151.323" gradientUnits="userSpaceOnUse">
<stop stop-color="white"/>
<stop offset="1" stop-color="white" stop-opacity="0.5"/>
</linearGradient>
</defs>
</svg>
