<svg width="174" height="167" viewBox="0 0 174 167" fill="none" xmlns="http://www.w3.org/2000/svg">
<g filter="url(#filter0_d_11339_207)">
<path d="M16.9342 99.0156L2.19385 120.997L3.16041 129.119L22.3471 144.189C22.3471 144.189 43.1284 160.614 54.3527 162.224C58.0744 162.757 93.2701 135.377 116.625 123.139C135.582 113.202 146.637 109.438 146.637 109.438L170.899 114.194L124.636 70.0986C124.636 70.0986 91.2884 90.6517 83.2902 99.0038C75.2915 107.355 54.2807 122.389 54.2807 122.389L31.6021 115.514L16.9342 99.0038V99.0156Z" fill="url(#paint0_linear_11339_207)"/>
<path d="M33.2728 59.1319L19.354 79.8422L32.862 95.7106L53.6194 102.138L87.631 73.33L107.639 61.807L121.643 55.549L100.305 38.0947C100.305 38.0947 73.6274 39.765 63.9618 51.7846C63.9618 51.7846 45.2946 69.8198 42.2864 67.484L33.2848 59.1319H33.2728Z" fill="url(#paint1_linear_11339_207)"/>
<path d="M66.8252 0.692871L35.3628 43.1183C35.3628 43.1183 41.1382 51.7848 44.3643 49.9691C47.989 47.9359 61.3153 34.0764 67.272 31.2559C79.1975 25.6033 73.9171 27.2979 87.6309 23.7393L97.3813 25.446L66.8252 0.692871Z" fill="url(#paint2_linear_11339_207)"/>
</g>
<defs>
<filter id="filter0_d_11339_207" x="0.0199347" y="0.692871" width="173.053" height="165.887" filterUnits="userSpaceOnUse" color-interpolation-filters="sRGB">
<feFlood flood-opacity="0" result="BackgroundImageFix"/>
<feColorMatrix in="SourceAlpha" type="matrix" values="0 0 0 0 0 0 0 0 0 0 0 0 0 0 0 0 0 0 127 0" result="hardAlpha"/>
<feOffset dy="2.17391"/>
<feGaussianBlur stdDeviation="1.08696"/>
<feComposite in2="hardAlpha" operator="out"/>
<feColorMatrix type="matrix" values="0 0 0 0 0 0 0 0 0 0 0 0 0 0 0 0 0 0 0.25 0"/>
<feBlend mode="normal" in2="BackgroundImageFix" result="effect1_dropShadow_11339_207"/>
<feBlend mode="normal" in="SourceGraphic" in2="effect1_dropShadow_11339_207" result="shape"/>
</filter>
<linearGradient id="paint0_linear_11339_207" x1="170.899" y1="185.7" x2="46.3028" y2="-13.6325" gradientUnits="userSpaceOnUse">
<stop offset="0.333372" stop-color="#3FB0FF"/>
<stop offset="0.71875" stop-color="#9236EA"/>
<stop offset="1" stop-color="#F29A6B"/>
</linearGradient>
<linearGradient id="paint1_linear_11339_207" x1="170.902" y1="185.699" x2="46.3061" y2="-13.633" gradientUnits="userSpaceOnUse">
<stop offset="0.333372" stop-color="#3FB0FF"/>
<stop offset="0.71875" stop-color="#9236EA"/>
<stop offset="1" stop-color="#F29A6B"/>
</linearGradient>
<linearGradient id="paint2_linear_11339_207" x1="170.902" y1="185.7" x2="46.3059" y2="-13.6327" gradientUnits="userSpaceOnUse">
<stop offset="0.333372" stop-color="#3FB0FF"/>
<stop offset="0.71875" stop-color="#9236EA"/>
<stop offset="1" stop-color="#F29A6B"/>
</linearGradient>
</defs>
</svg>
