<svg width="34" height="34" viewBox="0 0 34 34" fill="none" xmlns="http://www.w3.org/2000/svg">
<g clip-path="url(#clip0_972_497)">
<path d="M10.6574 14.398L16.9901 8.06562L23.3261 14.4014L27.0108 10.7166L16.9901 0.695557L6.97266 10.7132L10.6574 14.398Z" fill="#F3BA2F"/>
<path d="M8.05483 16.9992L4.37012 13.3145L0.685227 16.9993L4.36994 20.6841L8.05483 16.9992Z" fill="#F3BA2F"/>
<path d="M10.657 19.6017L16.9896 25.9341L23.3254 19.5986L27.0122 23.2813L27.0104 23.2834L16.9896 33.3042L6.97195 23.2868L6.9668 23.2816L10.657 19.6017Z" fill="#F3BA2F"/>
<path d="M29.61 20.6859L33.2949 17.001L29.6102 13.3163L25.9253 17.0012L29.61 20.6859Z" fill="#F3BA2F"/>
<path d="M20.7275 16.9979H20.7291L16.9899 13.2588L14.2267 16.022H14.2264L13.9091 16.3396L13.2542 16.9946L13.249 16.9997L13.2542 17.0051L16.9899 20.7409L20.7291 17.0018L20.7309 16.9997L20.7275 16.9979Z" fill="#F3BA2F"/>
</g>
<defs>
<clipPath id="clip0_972_497">
<rect width="32.6087" height="32.6087" fill="white" transform="translate(0.826172 0.695557)"/>
</clipPath>
</defs>
</svg>
