<svg width="26" height="26" viewBox="0 0 26 26" fill="none" xmlns="http://www.w3.org/2000/svg">
<rect x="0.213867" y="0.804443" width="25" height="25" rx="12.5" fill="#151424"/>
<g clip-path="url(#clip0_1000_378)">
<path fill-rule="evenodd" clip-rule="evenodd" d="M18.7872 11.1832C18.7872 18.6623 12.8018 20.6987 12.8018 20.6987C12.8018 20.6987 6.81641 18.6623 6.81641 11.1832V8.49107C6.81641 8.19599 7.04591 7.9592 7.33371 7.93734C8.41931 7.88634 10.9985 7.66776 12.8018 6.69873C14.6087 7.66776 17.1843 7.88634 18.2699 7.94098C18.5577 7.9592 18.7872 8.19599 18.7872 8.49107V11.1832ZM13.5595 10.9865C14.4484 11.0703 15.1479 11.3508 15.2207 12.1668C15.2754 12.7643 15.024 13.1213 14.6233 13.3253C15.2826 13.4856 15.6907 13.879 15.6032 14.757C15.4939 15.8426 14.678 16.1304 13.5195 16.1887L13.5231 17.3289H12.8273L12.8309 16.1996C12.6524 16.196 12.4703 16.1923 12.2808 16.1887L12.2736 17.3289L11.5887 17.3253L11.585 16.1778C11.4248 16.1778 10.3319 16.1814 10.3319 16.1814L10.3392 15.3508L11.1115 15.3471L11.1151 11.7042H10.2335V10.9792C10.2335 10.9792 11.4758 10.9792 11.6251 10.9756L11.6215 9.84261L12.3173 9.83897V10.9574C12.5031 10.9537 12.6961 10.9537 12.8783 10.9537L12.8747 9.8499L13.5632 9.84625L13.5595 10.9865ZM12.444 15.3567C13.0063 15.3688 14.234 15.3952 14.2408 14.6076C14.2473 13.8051 13.0612 13.8243 12.4802 13.8337C12.415 13.8348 12.3574 13.8357 12.31 13.8353L12.3136 15.3544C12.3512 15.3547 12.3951 15.3556 12.444 15.3567ZM12.44 13.1454C12.9049 13.1569 13.928 13.1824 13.9348 12.4656C13.9381 11.73 12.9349 11.753 12.4585 11.7639C12.4087 11.7651 12.3647 11.7661 12.3282 11.7661L12.3318 13.1432C12.363 13.1434 12.3994 13.1443 12.44 13.1454Z" fill="white"/>
</g>
<defs>
<clipPath id="clip0_1000_378">
<rect width="12.3845" height="14.5384" fill="white" transform="translate(6.52148 6.53516)"/>
</clipPath>
</defs>
</svg>
