<svg width="34" height="34" viewBox="0 0 34 34" fill="none" xmlns="http://www.w3.org/2000/svg">
<g clip-path="url(#clip0_973_532)">
<path d="M16.8483 33.3043C25.8529 33.3043 33.1526 26.0045 33.1526 16.9999C33.1526 7.99526 25.8529 0.695557 16.8483 0.695557C7.84365 0.695557 0.543945 7.99526 0.543945 16.9999C0.543945 26.0045 7.84365 33.3043 16.8483 33.3043Z" fill="#0052FF"/>
<path d="M16.985 12.2178C18.9046 12.2178 20.4274 13.4017 21.0056 15.1624H24.8728C24.1723 11.3981 21.0665 8.84766 17.0159 8.84766C12.4159 8.84766 8.82324 12.3394 8.82324 17.0154C8.82324 21.6915 12.3261 25.152 17.0159 25.152C20.9757 25.152 24.1433 22.6016 24.8445 18.806H21.0053C20.457 20.567 18.9354 21.7819 17.0146 21.7819C14.3642 21.7819 12.5067 19.7474 12.5067 17.0154C12.508 14.2523 14.3355 12.2178 16.985 12.2178Z" fill="white"/>
</g>
<defs>
<clipPath id="clip0_973_532">
<rect width="32.6087" height="32.6087" fill="white" transform="translate(0.543945 0.695557)"/>
</clipPath>
</defs>
</svg>
