<svg width="26" height="26" viewBox="0 0 26 26" fill="none" xmlns="http://www.w3.org/2000/svg">
<g clip-path="url(#clip0_1090_1868)">
<mask id="mask0_1090_1868" style="mask-type:luminance" maskUnits="userSpaceOnUse" x="0" y="0" width="26" height="26">
<path d="M25.2568 0.805664H0.256836V25.8057H25.2568V0.805664Z" fill="white"/>
</mask>
<g mask="url(#mask0_1090_1868)">
<path d="M12.7656 25.8057C19.6692 25.8057 25.2656 20.2092 25.2656 13.3057C25.2656 6.4021 19.6692 0.805664 12.7656 0.805664C5.86207 0.805664 0.265625 6.4021 0.265625 13.3057C0.265625 20.2092 5.86207 25.8057 12.7656 25.8057Z" fill="#1A1A1A"/>
<path d="M12.7762 15.3191C13.0415 15.3192 13.3039 15.2647 13.5471 15.1591C13.6639 15.107 13.7756 15.0439 13.8804 14.9707C13.9858 14.8971 14.0837 14.8134 14.1729 14.7207C14.4489 14.4366 14.6364 14.0785 14.7129 13.6899C14.7671 13.4187 14.7671 13.1395 14.7129 12.8682C14.637 12.4794 14.4494 12.1212 14.1729 11.8374C14.0837 11.7448 13.9858 11.6611 13.8804 11.5874C13.7756 11.5142 13.6639 11.4512 13.5471 11.3991C13.3039 11.2934 13.0415 11.239 12.7762 11.2391V5.66408C13.2901 5.66411 13.8027 5.71576 14.3062 5.81825C15.2779 6.01803 16.2006 6.40771 17.0212 6.96492C18.377 7.87386 19.4045 9.19461 19.9522 10.7322C20.4999 12.2697 20.5387 13.9427 20.063 15.504C19.5872 17.0653 18.6221 18.4323 17.31 19.4032C15.9979 20.374 14.4085 20.8973 12.7762 20.8957V15.3191ZM6.90625 20.8957V5.64575H11.7662V9.06573V17.4716V20.8932L6.90625 20.8957Z" fill="white"/>
</g>
</g>
<defs>
<clipPath id="clip0_1090_1868">
<rect width="25" height="25" fill="white" transform="translate(0.253906 0.804443)"/>
</clipPath>
</defs>
</svg>
