<svg width="26" height="26" viewBox="0 0 26 26" fill="none" xmlns="http://www.w3.org/2000/svg">
<rect x="0.213867" y="0.804443" width="25" height="25" rx="12.5" fill="#020203"/>
<path d="M12.7138 6.55354H12.7141C16.4424 6.55354 19.4647 9.57591 19.4647 13.3042V13.3044C19.4647 17.0327 16.4424 20.0551 12.7141 20.0551H12.7138C8.98557 20.0551 5.96321 17.0327 5.96321 13.3044V13.3042C5.96321 9.57591 8.98557 6.55354 12.7138 6.55354Z" stroke="#111111" stroke-width="0.248685"/>
<path d="M12.7138 6.55512H12.7141C16.4415 6.55512 19.4632 9.57678 19.4632 13.3042V13.3044C19.4632 17.0318 16.4415 20.0535 12.7141 20.0535H12.7138C8.98644 20.0535 5.96478 17.0318 5.96478 13.3044V13.3042C5.96478 9.57678 8.98644 6.55512 12.7138 6.55512Z" stroke="url(#paint0_linear_1000_399)" stroke-width="0.251833"/>
<path fill-rule="evenodd" clip-rule="evenodd" d="M11.2104 10.1067H11.0639L10.9689 10.2182L8.51684 13.0984L8.3418 13.304L8.51684 13.5096L10.9689 16.3898L11.0639 16.5013H11.2104H15.6251H15.9422V16.1842V14.3532H15.3079V15.867H11.9039L13.9412 13.5115L14.1206 13.304L13.9412 13.0966L11.9039 10.741H15.3079V12.2548H15.9422V10.4238V10.1067H15.6251H11.2104ZM11.2122 10.9109L9.17485 13.304L11.2123 15.6971L13.282 13.304L11.2122 10.9109Z" fill="white"/>
<defs>
<linearGradient id="paint0_linear_1000_399" x1="12.714" y1="6.29948" x2="12.714" y2="20.3091" gradientUnits="userSpaceOnUse">
<stop stop-color="white"/>
<stop offset="1" stop-color="#CCCCCC"/>
</linearGradient>
</defs>
</svg>
