<svg width="30" height="30" viewBox="0 0 30 30" fill="none" xmlns="http://www.w3.org/2000/svg">
<g clip-path="url(#clip0_973_558)">
<path d="M28.695 16.7803L27.64 12.6675C27.6097 12.5466 27.5122 12.4525 27.3913 12.4223L23.3156 11.4177C23.2853 11.4109 23.2518 11.4075 23.2215 11.4075C23.124 11.3975 23.0232 11.4277 22.9493 11.5016L16.0713 18.3797L15.1607 14.8247C15.1305 14.7037 15.0331 14.6097 14.9121 14.5795L11.4109 13.7159L18.2856 6.84125C18.3259 6.80092 18.3494 6.75054 18.3662 6.7001C18.3965 6.63293 18.4065 6.55565 18.3864 6.48173L17.3313 2.36903C17.3011 2.24807 17.2037 2.15398 17.0827 2.12375L13.007 1.11909C12.9263 1.09893 12.8457 1.11237 12.7751 1.14597H12.7718C12.7516 1.15605 12.7348 1.16949 12.7146 1.18293C12.6978 1.19637 12.6743 1.20309 12.6609 1.21989L0.92763 12.9465C0.92763 12.9465 0.907446 12.98 0.894006 12.9968C0.820082 13.0842 0.793201 13.1985 0.826804 13.3093L1.96584 17.2843C1.99948 17.3985 2.08681 17.4859 2.19768 17.5161L6.0147 18.6115L7.11008 22.4252C7.14366 22.5394 7.23105 22.6267 7.34192 22.657L11.1724 23.7557L12.2711 27.5862C12.3047 27.7004 12.3921 27.7878 12.503 27.818L16.4947 28.9638C16.5249 28.9739 16.5586 28.9772 16.5888 28.9772C16.5955 28.9772 16.6022 28.9739 16.6123 28.9739C16.6123 28.9739 16.6157 28.9739 16.619 28.9739C16.7064 28.9739 16.7937 28.9403 16.8609 28.8731L28.5976 17.1364C28.6379 17.0961 28.6614 17.0457 28.6782 16.9953C28.7084 16.9281 28.7186 16.8508 28.6984 16.7769L28.695 16.7803ZM23.4332 21.3398L22.5764 17.9966L24.4748 16.1015L27.7374 17.039L23.4365 21.3432L23.4332 21.3398ZM16.7769 27.9961L15.9201 24.6529L19.3541 21.2189L22.6167 22.1564L16.7769 27.9961ZM19.4246 20.1873L18.6048 17.3313L21.5515 18.0571L19.4246 20.184V20.1873ZM22.0186 18.5544L22.7713 21.4877L19.9051 20.6645L22.0186 18.551V18.5544ZM22.1161 17.496L18.7762 16.6728L23.0669 12.382L23.9943 15.6177L22.1161 17.496ZM17.9462 17.4993L18.8736 20.7351L15.4564 24.1522L12.1165 23.329L17.9462 17.4993ZM27.0318 13.0271L27.8886 16.3703L24.6495 15.4396L23.7221 12.2106L27.0318 13.0271ZM11.6125 22.8317L10.7557 19.4885L11.9922 18.252L15.2549 19.1894L11.6125 22.8317ZM12.0628 17.2204L11.243 14.3644L14.1897 15.0902L12.0628 17.2171V17.2204ZM15.4094 18.5241L12.5433 17.7009L14.6568 15.5874L15.4094 18.5208V18.5241ZM11.5151 17.7715L10.2954 18.9912L6.95551 18.168L10.5877 14.5358L11.5151 17.7715ZM7.67122 7.1638L8.59861 10.3996L5.15116 13.847L1.81127 13.0237L7.67122 7.1638ZM12.7617 2.07334L13.689 5.30907L11.841 7.15711L8.50116 6.33391L12.7617 2.07334ZM13.1582 11.001L12.3013 7.66108L14.1695 5.79293L17.4321 6.72701L13.1582 11.001ZM9.14964 9.85184L8.3298 6.99581L11.2765 7.72157L9.14964 9.84847V9.85184ZM11.7436 8.21885L12.4962 11.1522L9.6335 10.329L11.7469 8.21548L11.7436 8.21885ZM9.08241 10.88L12.345 11.8141L6.47502 17.6841L5.61823 14.3442L9.08241 10.88ZM16.7265 2.72519L17.5833 6.06842L14.3443 5.13771L13.4169 1.9087L16.7265 2.72519ZM1.64328 13.6856L4.59008 14.4114L2.46312 16.5384L1.64328 13.6823V13.6856ZM2.94361 17.0222L5.05709 14.9087L5.80975 17.8421L2.94698 17.0189L2.94361 17.0222ZM7.71154 22.0589L6.78415 18.8299L10.0938 19.6464L10.9506 22.9896L7.71154 22.0589ZM11.9486 23.9909L14.8953 24.7167L12.7684 26.8436L11.9486 23.9876V23.9909ZM13.2489 27.3274L15.3624 25.214L16.115 28.1473L13.2489 27.3241V27.3274Z" fill="url(#paint0_linear_973_558)"/>
</g>
<defs>
<linearGradient id="paint0_linear_973_558" x1="2.7454" y1="19.4179" x2="26.9007" y2="10.6247" gradientUnits="userSpaceOnUse">
<stop stop-color="#29BCFA"/>
<stop offset="0.43" stop-color="#6464E4"/>
<stop offset="1" stop-color="#B45AFA"/>
</linearGradient>
<clipPath id="clip0_973_558">
<rect width="28.8043" height="28.2609" fill="white" transform="translate(0.369141 0.869629)"/>
</clipPath>
</defs>
</svg>
