<svg width="25" height="23" viewBox="0 0 25 23" fill="none" xmlns="http://www.w3.org/2000/svg">
<path d="M24.5901 9.66259L19.7251 1.44164C19.5074 1.07336 19.1941 0.767676 18.8167 0.555416C18.4394 0.343157 18.0115 0.231832 17.576 0.232671H7.85583C7.31688 0.234081 6.78772 0.373472 6.32115 0.63694C5.85457 0.900407 5.46689 1.27874 5.19676 1.7342L0.331702 9.95516C0.1144 10.3227 0 10.7397 0 11.1641C0 11.5886 0.1144 12.0055 0.331702 12.3731L5.19676 20.6061C5.4671 21.062 5.85517 21.4405 6.32222 21.704C6.78927 21.9675 7.31893 22.1067 7.85831 22.1077H17.576C18.0098 22.1068 18.4357 21.9947 18.8111 21.7825C19.1866 21.5703 19.4983 21.2656 19.7152 20.8987L24.5802 12.6777C24.8535 12.2205 24.9982 11.7009 25 11.1715C25.0017 10.6421 24.8604 10.1216 24.5901 9.66259ZM1.71323 11.198L2.26287 10.2767L6.608 2.91415L9.33144 7.52756C9.45852 7.7216 9.65733 7.8603 9.88648 7.91478C10.1156 7.96926 10.3575 7.93533 10.5617 7.82005C10.7658 7.70477 10.9166 7.51702 10.9826 7.29589C11.0486 7.07477 11.0248 6.8373 10.916 6.63293L8.72238 2.91415C8.54052 2.65091 8.29792 2.43304 8.0141 2.27807C7.73029 2.12311 7.41319 2.03538 7.08832 2.02194H16.8977L12.2851 9.82459C12.2037 9.96194 12.0867 10.076 11.9459 10.1553C11.8051 10.2347 11.6455 10.2765 11.483 10.2767H3.36958C3.03495 10.2746 2.70565 10.3586 2.41486 10.5204C2.12407 10.6821 1.88207 10.9158 1.71323 11.198ZM16.8977 20.3208H8.19502L10.9185 15.7026C10.9851 15.6008 11.03 15.4868 11.0504 15.3676C11.0707 15.2484 11.0661 15.1264 11.0368 15.0089C11.0075 14.8915 10.9542 14.7811 10.88 14.6843C10.8059 14.5876 10.7124 14.5065 10.6052 14.446C10.4981 14.3855 10.3795 14.3469 10.2567 14.3324C10.1338 14.3179 10.0092 14.3278 9.89038 14.3617C9.77157 14.3955 9.66101 14.4525 9.56537 14.5292C9.46973 14.6059 9.39099 14.7007 9.33392 14.8079L6.61048 19.4262L6.06826 20.3498C6.21801 20.0941 6.3035 19.8074 6.3177 19.5132C6.3319 19.2189 6.27442 18.9256 6.14997 18.6573L2.25792 12.0636H11.483C11.6454 12.064 11.805 12.106 11.9457 12.1853C12.0864 12.2647 12.2035 12.3786 12.2851 12.5157L16.3827 19.4455C16.5635 19.7051 16.8043 19.9195 17.0855 20.0715C17.3668 20.2236 17.6807 20.309 18.0019 20.3208H16.8977ZM22.8348 12.066L18.4847 19.4262L13.8623 11.6235C13.7815 11.4859 13.739 11.33 13.739 11.1714C13.739 11.0127 13.7815 10.8569 13.8623 10.7192L18.4847 2.91415L19.0269 1.99292C18.8455 2.3033 18.7589 2.65792 18.7773 3.01484C18.7958 3.37176 18.9184 3.71607 19.1309 4.00706C19.2869 4.21983 22.8447 10.2743 22.8447 10.2743H17.3706C17.1276 10.2743 16.8946 10.3686 16.7228 10.5364C16.551 10.7041 16.4545 10.9317 16.4545 11.169C16.4545 11.4062 16.551 11.6338 16.7228 11.8016C16.8946 11.9693 17.1276 12.0636 17.3706 12.0636H21.7528H21.7281C22.0627 12.0657 22.392 11.9817 22.6828 11.82C22.9736 11.6583 23.2156 11.4245 23.3844 11.1424L22.8323 12.0684L22.8348 12.066Z" fill="black"/>
</svg>
