<svg width="32" height="32" viewBox="0 0 32 32" fill="none" xmlns="http://www.w3.org/2000/svg">
<path fill-rule="evenodd" clip-rule="evenodd" d="M5.42387 0.784424C2.54387 0.784424 0.213867 3.11442 0.213867 5.99442V26.6144C0.213867 29.4944 2.54387 31.8244 5.42387 31.8244H26.0439C28.9239 31.8244 31.2539 29.4944 31.2539 26.6144V5.99442C31.2539 3.11442 28.9239 0.784424 26.0439 0.784424H5.42387ZM12.7739 20.5144C12.7739 22.1344 14.0939 23.4544 15.7139 23.4544C17.3339 23.4544 18.6539 22.1344 18.6539 20.5144C18.6539 19.7644 18.3739 19.0644 17.8739 18.5144L15.7139 16.3544L13.9539 14.5944L10.7339 11.3744C11.6239 10.4844 12.5139 9.59442 13.4039 8.70442L15.9939 6.11442L17.6639 7.78442L14.1539 11.2844L15.7039 12.8244L18.5639 10.0144L19.4939 10.9444L20.3339 11.7744L17.4739 14.5844L19.6639 16.7744C20.6339 17.8144 21.1439 19.1244 21.1439 20.5044C21.1439 23.5044 18.7039 25.9344 15.7039 25.9344C12.7039 25.9344 10.2639 23.4944 10.2639 20.5044C10.2639 19.1344 10.7739 17.8244 11.7039 16.8144L12.9139 15.6044L14.6739 17.3644L13.4939 18.5444C13.0239 19.0544 12.7439 19.7644 12.7439 20.5044L12.7739 20.5144Z" fill="#32C6A1"/>
</svg>
