<svg width="26" height="26" viewBox="0 0 26 26" fill="none" xmlns="http://www.w3.org/2000/svg">
<rect x="0.213867" y="0.804443" width="25" height="25" rx="12.5" fill="#080808"/>
<g clip-path="url(#clip0_1000_388)">
<path d="M15.5508 20.02L15.5509 20.02C16.4189 19.6528 17.1983 19.1274 17.8675 18.4582C17.8675 18.4582 17.8676 18.4582 17.8676 18.4582M15.5508 20.02L17.8676 18.4582M15.5508 20.02C14.6522 20.4004 13.6981 20.5928 12.7139 20.5928C11.7297 20.5928 10.7756 20.3999 9.87683 20.02M15.5508 20.02L9.87683 20.02M17.8676 18.4582C18.5369 17.7883 19.0623 17.0094 19.4294 16.1415M17.8676 18.4582L19.4294 16.1415M19.4294 16.1415C19.8094 15.2428 20.0022 14.2886 20.0022 13.3044M19.4294 16.1415L20.0022 13.3044M9.87683 20.02C9.00888 19.6528 8.22998 19.1275 7.56015 18.4582M9.87683 20.02L7.56015 18.4582M7.56015 18.4582C6.8909 17.7889 6.3655 17.0095 5.99833 16.1415C5.61838 15.2428 5.42554 14.2886 5.42554 13.3044C5.42554 12.3203 5.61837 11.3662 5.99832 10.4674L7.56015 18.4582ZM7.56015 8.15072C6.89085 8.82055 6.36547 9.59946 5.99833 10.4674L7.56015 8.15072ZM7.56015 8.15072C8.22998 7.48142 9.00888 6.95604 9.87683 6.58891L7.56015 8.15072ZM12.7139 6.01611C11.7297 6.01611 10.7756 6.20895 9.87687 6.58889L12.7139 6.01611ZM12.7139 6.01611C13.6981 6.01611 14.6522 6.20895 15.5509 6.58891M12.7139 6.01611L15.5509 6.58891M15.5509 6.58891C16.4189 6.95605 17.1978 7.48145 17.8676 8.15078M15.5509 6.58891L17.8676 8.15078M17.8676 8.15078C18.5369 8.82001 19.0622 9.59941 19.4294 10.4674M17.8676 8.15078L19.4294 10.4674M19.4294 10.4674C19.8094 11.3661 20.0022 12.3202 20.0022 13.3044M19.4294 10.4674L20.0022 13.3044" stroke="white" stroke-width="0.42334"/>
<path d="M16.4555 13.3048C16.4555 12.5439 16.2269 11.8358 15.8353 11.2442L16.9969 10.0827L15.9523 9.03809L14.7939 10.1965C14.1991 9.79693 13.4837 9.56356 12.7148 9.56356C11.9538 9.56356 11.2458 9.79217 10.6542 10.1838L9.49211 9.02222L8.44752 10.0668L9.60588 11.2252C9.20635 11.82 8.97299 12.5354 8.97299 13.3043C8.97299 14.0653 9.20159 14.7733 9.59318 15.3649L8.43164 16.527L9.47623 17.5716L10.6346 16.4132C11.2294 16.8127 11.9448 17.0461 12.7137 17.0461C13.4747 17.0461 14.1827 16.8175 14.7743 16.4259L15.9364 17.588L16.981 16.5434L15.8226 15.385C16.2222 14.7892 16.4555 14.0737 16.4555 13.3048ZM10.451 13.3048C10.451 12.0565 11.4665 11.041 12.7148 11.041C13.9631 11.041 14.9786 12.0565 14.9786 13.3048C14.9786 14.5532 13.9631 15.5686 12.7148 15.5686C11.4665 15.5686 10.451 14.5532 10.451 13.3048Z" fill="white"/>
</g>
<defs>
<clipPath id="clip0_1000_388">
<rect width="15" height="15" fill="white" transform="translate(5.21387 5.80444)"/>
</clipPath>
</defs>
</svg>
