<svg width="25" height="27" viewBox="0 0 25 27" fill="none" xmlns="http://www.w3.org/2000/svg">
<path d="M6.83867 1.68353L0.216327 0.184136C0.105481 0.159039 0 0.243307 0 0.356959V26.4845C0 26.5967 0.103001 26.6807 0.212921 26.658L6.83527 25.295C6.9176 25.2781 6.97672 25.2055 6.97672 25.1214V1.85635C6.97672 1.77357 6.91937 1.70182 6.83867 1.68353Z" fill="#1B2126"/>
<path d="M18.1616 1.68353L24.7839 0.184136C24.8947 0.159039 25.0002 0.243307 25.0002 0.356959V26.4845C25.0002 26.5967 24.8972 26.6807 24.7873 26.658L18.1649 25.295C18.0826 25.2781 18.0234 25.2055 18.0234 25.1214V1.85635C18.0234 1.77357 18.0807 1.70182 18.1616 1.68353Z" fill="#1B2126"/>
<mask id="mask0_1090_1944" style="mask-type:alpha" maskUnits="userSpaceOnUse" x="9" y="9" width="7" height="8">
<path d="M15.9884 16.6728C15.9884 16.7572 15.92 16.8256 15.8357 16.8256H9.16438C9.08006 16.8256 9.01172 16.7572 9.01172 16.6728V10.0015C9.01172 9.91722 9.08006 9.84888 9.16438 9.84888H15.8357C15.92 9.84888 15.9884 9.91722 15.9884 10.0015V16.6728Z" fill="#0072E5"/>
</mask>
<g mask="url(#mask0_1090_1944)">
<path d="M9.01172 9.84888H15.9884L9.01172 16.8256V9.84888Z" fill="#4960B2"/>
<path d="M15.9884 16.8256H9.01172L15.9884 9.84888V16.8256Z" fill="#34488F"/>
</g>
</svg>
