<svg width="25" height="26" viewBox="0 0 25 26" fill="none" xmlns="http://www.w3.org/2000/svg">
<path fill-rule="evenodd" clip-rule="evenodd" d="M0.200747 21.0595C0.0733455 21.3647 0.00743263 21.6922 0.00678151 22.023C0.00678151 23.3941 1.16529 24.6451 3.0803 25.6033C3.25511 25.6883 3.44576 25.7357 3.63999 25.7426C3.83424 25.7495 4.02776 25.7155 4.20812 25.6431C4.38848 25.5707 4.55168 25.4612 4.68725 25.3219C4.82285 25.1825 4.92775 25.0163 4.99533 24.834L7.129 19.699C7.50269 18.8053 7.79766 17.8808 8.01068 16.9357C4.05721 17.5992 1.07714 19.115 0.251892 20.9695L0.218376 21.0489L0.200747 21.0595ZM8.00384 9.55188C7.79092 8.60685 7.49586 7.68222 7.12222 6.78854L4.98854 1.65185C4.92062 1.46956 4.81536 1.30352 4.67956 1.16436C4.54373 1.02519 4.38033 0.915961 4.19985 0.843672C4.01937 0.771382 3.8258 0.737701 3.63154 0.744644C3.43727 0.751659 3.2466 0.799227 3.07177 0.884295C1.15853 1.84066 0 3.09355 0 4.46456C0.000789785 4.79539 0.0666972 5.12274 0.193964 5.42809V5.43864L0.22748 5.51808C1.07036 7.37264 4.05043 8.88665 8.00384 9.55188ZM21.9249 0.884295C23.8399 1.84066 24.9984 3.09355 24.9984 4.46456C24.9934 4.79602 24.9239 5.12323 24.7938 5.42809L24.7656 5.49336C23.9475 7.36028 20.9603 8.88308 16.9946 9.55188C17.2075 8.60685 17.5025 7.68222 17.8762 6.78854L20.0098 1.65185C20.0774 1.46949 20.1823 1.30324 20.3179 1.16394C20.4535 1.02464 20.6168 0.915268 20.7972 0.842976C20.9777 0.770686 21.1712 0.737005 21.3654 0.744089C21.5597 0.751172 21.7502 0.79895 21.9249 0.884295ZM17.0067 16.9357C17.2156 17.8799 17.5071 18.8041 17.8778 19.6973L20.0115 24.834C20.079 25.0163 20.184 25.1825 20.3196 25.3219C20.4551 25.4612 20.6183 25.5707 20.7987 25.6431C20.9791 25.7155 21.1726 25.7495 21.3668 25.7426C21.5611 25.7357 21.7517 25.6883 21.9265 25.6033C23.8415 24.6451 25 23.3941 25 22.023C24.9985 21.6923 24.9327 21.365 24.8061 21.0595L24.7779 20.9942C23.9632 19.1273 20.9655 17.6027 17.0067 16.9357ZM16.872 10.6448C19.6793 10.2126 22.0122 9.37087 23.6222 8.2715L23.1655 9.3673C22.1427 11.848 22.1427 14.6331 23.1655 17.1138L23.6186 18.2061C22.007 17.1067 19.674 16.2739 16.8703 15.8363L16.7962 15.8257C15.3745 15.6104 13.9386 15.5036 12.5007 15.5063C11.0664 15.5041 9.63396 15.6109 8.21571 15.8257L8.14171 15.8363C5.33621 16.2668 3.00328 17.1085 1.39157 18.2079L1.84651 17.1138C2.86935 14.6331 2.86935 11.848 1.84651 9.3673L1.39157 8.2715C2.99622 9.37614 5.32912 10.2126 8.13462 10.6448L8.20873 10.6555C11.0562 11.079 13.9505 11.079 16.798 10.6555L16.872 10.6448Z" fill="#5144E4"/>
</svg>
