<svg width="26" height="27" viewBox="0 0 26 27" fill="none" xmlns="http://www.w3.org/2000/svg">
<path d="M13.4057 0.763184C10.2414 0.763184 7.70996 3.33421 7.70996 6.459C7.70996 7.76429 8.18461 9.06958 9.01524 10.098L9.52944 10.6913L15.3043 17.8111L15.8185 18.4044C16.2932 18.9582 16.5305 19.6306 16.5305 20.3821C16.5305 22.0829 15.1461 23.4673 13.4453 23.4673C11.7445 23.4673 10.3601 22.0829 10.3601 20.3821V19.947C9.52944 20.3426 8.65926 20.5799 7.74952 20.659C7.90773 23.6651 10.3996 26.0779 13.4453 26.0779C16.6096 26.0779 19.1411 23.5069 19.1411 20.3821C19.1411 19.0768 18.6664 17.7715 17.8358 16.7431L17.3611 16.1498L11.5863 9.03003L11.0721 8.43672C10.5974 7.88296 10.3601 7.21053 10.3601 6.49856C10.3601 4.79772 11.7445 3.41332 13.4453 3.41332C15.1461 3.41332 16.5305 4.79772 16.5305 6.49856V6.85454C17.3216 6.459 18.1918 6.22168 19.1411 6.18212C18.9433 3.176 16.4514 0.763184 13.4057 0.763184Z" fill="#EDB500"/>
<path d="M7.19583 19.6307C8.77799 19.6307 10.3997 18.9583 11.4281 17.8904C11.9423 17.3762 12.4565 16.8224 12.8916 16.2291L11.1908 14.1327C10.6766 14.8051 10.1624 15.3984 9.56907 15.9918C9.09442 16.4664 8.14512 16.9806 7.11672 16.9806C5.13902 16.9806 3.5173 15.3589 3.5173 13.3812C3.5173 11.4035 5.13902 9.78173 7.11672 9.78173C7.35404 9.78173 7.55181 9.82128 7.74958 9.82128C7.27493 8.99064 6.9585 8.08089 6.83984 7.13159C3.5173 7.25025 0.867188 10.0191 0.867188 13.3416C0.867188 16.7433 3.63597 19.5516 7.03761 19.5912H7.19583V19.6307Z" fill="#00101B"/>
<path d="M19.9722 7.1709H19.1811C17.6385 7.25001 16.4519 7.80377 15.3444 8.91129C14.8302 9.42549 14.316 9.97925 13.8809 10.5726L15.5817 12.6689C16.0959 11.9965 16.6101 11.4032 17.2034 10.8099C17.9154 10.0979 18.5878 9.82104 19.6557 9.82104C21.6334 9.82104 23.2552 11.4428 23.2552 13.4205C23.2552 15.3982 21.6334 17.0199 19.6557 17.0199C19.458 17.0199 19.2206 16.9804 18.9833 16.9408C19.4975 17.7714 19.7744 18.6812 19.8931 19.6305C23.2156 19.5118 25.8657 16.743 25.8657 13.4205C25.9448 10.0584 23.2947 7.32912 19.9722 7.1709Z" fill="#00101B"/>
</svg>
