<svg width="24" height="24" viewBox="0 0 24 24" fill="none" xmlns="http://www.w3.org/2000/svg">
<path d="M11.2063 7.36957C11.3381 7.23529 11.5196 7.15325 11.721 7.15325C11.9224 7.15325 12.1014 7.23282 12.2307 7.3646L15.4282 10.5621C15.6868 10.8207 16.107 10.8207 16.3655 10.5621L18.9091 8.01851C19.1677 7.75993 19.1677 7.33974 18.9091 7.08116L13.5808 1.74534C12.5564 0.720954 10.893 0.720954 9.8686 1.74534L4.5328 7.08116C4.27422 7.33974 4.27422 7.75993 4.5328 8.01851L7.07639 10.5621C7.33497 10.8207 7.75516 10.8207 8.01377 10.5621L11.2063 7.36957Z" fill="#FF6521"/>
<path d="M22.3973 10.5647L21.2411 9.40854C20.9825 9.14995 20.5623 9.14995 20.3037 9.40854L12.2304 17.4819C12.1011 17.6111 11.9196 17.6932 11.7207 17.6932C11.5218 17.6932 11.3428 17.6136 11.211 17.4843L3.14015 9.40854C2.88157 9.14995 2.46137 9.14995 2.20279 9.40854L1.04662 10.5647C0.0222217 11.5891 0.0222217 13.2525 1.04662 14.2769L9.86584 23.0961C10.8902 24.1206 12.5536 24.1206 13.578 23.0961L22.3973 14.2769C23.4217 13.2525 23.4217 11.5891 22.3973 10.5647Z" fill="#202020"/>
</svg>
