<svg width="51" height="26" viewBox="0 0 51 26" fill="none" xmlns="http://www.w3.org/2000/svg">
<g clip-path="url(#clip0_1106_514)">
<path d="M15.5725 1.23763L13.767 7.96382C13.4495 7.90429 13.1122 7.86461 12.7749 7.86461C12.2789 7.86461 11.8027 7.92414 11.3265 8.04318C10.513 8.26144 9.77888 8.65826 9.1638 9.19398L4.24316 4.27334C4.87808 3.6781 5.57253 3.14239 6.3265 2.70588L6.70348 2.48763C7.5765 2.01144 8.52888 1.61461 9.52094 1.35667C10.5527 1.05905 11.644 0.920166 12.7551 0.920166C13.7273 0.920166 14.6598 1.01937 15.5725 1.23763Z" fill="#00ACEB"/>
<path d="M49.958 10.6223C50.1762 11.5152 50.2755 12.4477 50.2755 13.4199C50.2755 14.5509 50.1366 15.6223 49.8588 16.6541C49.6009 17.6461 49.204 18.5787 48.7278 19.4715L48.5096 19.8683C48.0532 20.6223 47.5374 21.3168 46.9421 21.9517L42.0215 17.031C42.5374 16.416 42.9342 15.6818 43.1524 14.8683C43.2715 14.412 43.331 13.9358 43.331 13.4199C43.331 13.0826 43.3112 12.7652 43.2516 12.4477L49.958 10.6223Z" fill="#00BFF2"/>
<path d="M35.9103 18.6782L34.1048 25.4044C33.2714 25.1464 32.4778 24.8091 31.7238 24.3925L31.3468 24.1742C30.454 23.6385 29.6603 23.0036 28.9262 22.2893L28.569 21.9123C28.2913 21.6147 28.0135 21.2774 27.7754 20.9599L32.6167 16.1187L33.6881 17.2298C33.7278 17.2893 33.7873 17.329 33.8468 17.3885C34.4222 17.944 35.1167 18.4004 35.9103 18.6782Z" fill="#009CDD"/>
<path d="M22.7746 5.92034L17.9333 10.7616L16.8619 9.6505C16.8023 9.59098 16.7627 9.55129 16.7031 9.49177C16.1277 8.91637 15.4135 8.46002 14.6396 8.18224L16.4452 1.45605C17.2785 1.71399 18.092 2.05129 18.8262 2.46796L19.2031 2.68621C20.096 3.22193 20.9095 3.85685 21.6238 4.57113L21.9809 4.94812C22.2587 5.26558 22.5166 5.60288 22.7746 5.92034Z" fill="#009CDD"/>
<path d="M41.3664 17.666L46.2871 22.5866C45.6521 23.1819 44.9577 23.7176 44.2037 24.1541L43.8267 24.3724C42.9537 24.8486 42.0013 25.2454 41.0093 25.5033C39.9775 25.7811 38.8863 25.92 37.7752 25.92C36.8029 25.92 35.8704 25.8208 34.9775 25.6025L36.7831 18.8763C37.1006 18.9359 37.4379 18.9755 37.7752 18.9755C38.2712 18.9755 38.7672 18.916 39.2236 18.797C40.0172 18.5787 40.7513 18.2017 41.3664 17.666Z" fill="#00ACEB"/>
<path d="M15.8112 18.0829L20.712 23.0829C20.2358 23.4797 19.7398 23.8369 19.2041 24.1345L18.8072 24.3527C17.9342 24.8488 16.9818 25.2258 16.0096 25.4837C14.9779 25.7615 13.8866 25.9004 12.7755 25.9004C11.6644 25.9004 10.5731 25.7615 9.54137 25.4837C8.54931 25.2258 7.61677 24.8289 6.74375 24.3527L6.34693 24.1147C5.47391 23.5988 4.66042 22.9639 3.94613 22.2297C3.23185 21.5154 2.59693 20.702 2.06121 19.8289L1.84296 19.452C1.42629 18.698 1.08899 17.9043 0.831055 17.071L7.5374 15.2456C7.81518 16.0393 8.27153 16.7535 8.84693 17.3488C9.52153 18.0234 10.3945 18.5393 11.3469 18.7972C11.8033 18.9162 12.2795 18.9758 12.7953 18.9758C13.2914 18.9758 13.7874 18.9162 14.2438 18.7972C14.7795 18.6385 15.3152 18.4004 15.8112 18.0829Z" fill="#FFA726"/>
<path d="M3.60806 4.90796L8.52869 9.82859C7.99298 10.4437 7.59615 11.1778 7.3779 11.9913C7.25885 12.4476 7.19933 12.9238 7.19933 13.4199C7.19933 13.7572 7.21917 14.0746 7.27869 14.3921L0.572343 16.2175C0.354089 15.3246 0.254883 14.3921 0.254883 13.4199C0.254883 12.2889 0.393772 11.2175 0.671549 10.1857C0.929486 9.19367 1.32631 8.26113 1.8025 7.38812L2.02076 6.99129C2.49695 6.23732 3.01282 5.54288 3.60806 4.90796Z" fill="#00BFF2"/>
<path d="M49.7185 9.74953L43.0121 11.5749C42.7344 10.7813 42.278 10.067 41.7026 9.47175C41.028 8.79715 40.155 8.28128 39.2026 8.02334C38.7463 7.90429 38.2701 7.84477 37.7542 7.84477C37.2582 7.84477 36.7621 7.90429 36.3058 8.02334C35.7304 8.18207 35.1947 8.42017 34.6986 8.73763L29.7979 3.73763C30.274 3.3408 30.7701 2.98366 31.3058 2.68604L31.7026 2.44794C32.5756 1.97175 33.528 1.57493 34.5002 1.31699C35.5717 1.05905 36.6431 0.920166 37.774 0.920166C38.8852 0.920166 39.9764 1.05905 41.0082 1.33683C42.0002 1.59477 42.9328 1.99159 43.8058 2.46779L44.2026 2.70588C45.0756 3.22175 45.8891 3.85667 46.6034 4.5908C47.3177 5.30509 47.9526 6.11858 48.4883 6.99159L48.7066 7.36858C49.1232 8.12255 49.4804 8.9162 49.7185 9.74953Z" fill="#FFA726"/>
</g>
<defs>
<clipPath id="clip0_1106_514">
<rect width="50.0198" height="25" fill="white" transform="translate(0.257812 0.920654)"/>
</clipPath>
</defs>
</svg>
