<svg width="26" height="26" viewBox="0 0 26 26" fill="none" xmlns="http://www.w3.org/2000/svg">
<rect x="0.257812" y="0.920654" width="25" height="25" rx="3" fill="black"/>
<path d="M14.7994 11.2144H10.7128C10.5393 11.2144 10.3984 11.346 10.3984 11.5085V15.3323C10.3984 15.4947 10.5393 15.6264 10.7128 15.6264H14.7994C14.973 15.6264 15.1137 15.4947 15.1137 15.3323V11.5085C15.1137 11.346 14.973 11.2144 14.7994 11.2144Z" fill="white"/>
<path d="M10.0844 6.80225H5.99793C5.8243 6.80225 5.68359 6.93394 5.68359 7.09638V10.9202C5.68359 11.0826 5.8243 11.2143 5.99793 11.2143H10.0844C10.258 11.2143 10.3989 11.0826 10.3989 10.9202V7.09638C10.3989 6.93394 10.258 6.80225 10.0844 6.80225Z" fill="white"/>
<path d="M19.5171 6.80225H15.4305C15.257 6.80225 15.1162 6.93394 15.1162 7.09638V10.9202C15.1162 11.0826 15.257 11.2143 15.4305 11.2143H19.5171C19.6908 11.2143 19.8315 11.0826 19.8315 10.9202V7.09638C19.8315 6.93394 19.6908 6.80225 19.5171 6.80225Z" fill="white"/>
<path d="M10.0844 15.6265H5.99793C5.8243 15.6265 5.68359 15.7581 5.68359 15.9206V19.7444C5.68359 19.9068 5.8243 20.0386 5.99793 20.0386H10.0844C10.258 20.0386 10.3989 19.9068 10.3989 19.7444V15.9206C10.3989 15.7581 10.258 15.6265 10.0844 15.6265Z" fill="white"/>
<path d="M19.5171 15.6267H15.4305C15.257 15.6267 15.1162 15.7584 15.1162 15.9208V19.7447C15.1162 19.9071 15.257 20.0388 15.4305 20.0388H19.5171C19.6908 20.0388 19.8315 19.9071 19.8315 19.7447V15.9208C19.8315 15.7584 19.6908 15.6267 19.5171 15.6267Z" fill="white"/>
</svg>
