<svg width="25" height="26" viewBox="0 0 25 26" fill="none" xmlns="http://www.w3.org/2000/svg">
<g clip-path="url(#clip0_1629_633)">
<mask id="mask0_1629_633" style="mask-type:luminance" maskUnits="userSpaceOnUse" x="0" y="0" width="25" height="26">
<path d="M25 0.743408H0V25.7434H25V0.743408Z" fill="white"/>
</mask>
<g mask="url(#mask0_1629_633)">
<path fill-rule="evenodd" clip-rule="evenodd" d="M12.5 0.743408C19.4039 0.743408 25 6.33994 25 13.2434C25 20.1473 19.4039 25.7434 12.5 25.7434C5.59701 25.7434 0 20.1473 0 13.2434C0 6.34042 5.59653 0.743408 12.5 0.743408Z" fill="#0074F0"/>
<path fill-rule="evenodd" clip-rule="evenodd" d="M16.0231 11.7365C16.1149 12.1956 16.1633 12.6992 16.1633 13.2429C16.1633 16.1708 14.7897 17.919 12.4891 17.919C11.5298 17.919 10.7202 17.6116 10.1098 17.0258L18.1182 9.00672C17.9037 8.62635 17.6592 8.27063 17.3837 7.94585C17.2676 7.80956 17.1459 7.68148 17.0216 7.55775L17.0226 7.55631C17.0061 7.54035 16.9887 7.52489 16.9728 7.50894C16.9356 7.4727 16.9004 7.43499 16.8627 7.40019L16.8602 7.40164C15.6978 6.31613 14.2025 5.74341 12.4891 5.74341C10.5091 5.74341 8.81986 6.50511 7.60481 7.94585C6.46228 9.30105 5.83301 11.1826 5.83301 13.2429C5.83301 14.6126 6.11236 15.9011 6.63385 17.0098L8.95761 14.6832C8.87689 14.2424 8.83581 13.762 8.83581 13.2429C8.83581 11.8955 9.10984 10.8056 9.65019 10.0043C10.2834 9.06423 11.2654 8.5669 12.4891 8.5669C13.4418 8.5669 14.2348 8.86801 14.8381 9.4272L6.84554 17.4308C7.06545 17.83 7.31918 18.2017 7.60434 18.5405C7.66185 18.6082 7.72081 18.6734 7.78026 18.7381L7.78171 18.7396C7.85034 18.8145 7.92042 18.8871 7.99146 18.9576L8.01854 18.9846C8.04125 19.0069 8.063 19.0305 8.0862 19.0523L8.08861 19.0503C9.25194 20.1586 10.7584 20.7434 12.4886 20.7434C14.4703 20.7434 16.1623 19.9817 17.3832 18.5405C18.532 17.1838 19.1651 15.3023 19.1651 13.2434C19.1651 11.8529 18.8752 10.5446 18.3339 9.42284L16.0226 11.737L16.0231 11.7365Z" fill="white"/>
</g>
</g>
<defs>
<clipPath id="clip0_1629_633">
<rect width="25" height="25" fill="white" transform="translate(0 0.743408)"/>
</clipPath>
</defs>
</svg>
