<svg width="23" height="29" viewBox="0 0 23 29" fill="none" xmlns="http://www.w3.org/2000/svg">
<path d="M22.8672 18.3069C22.8672 18.2868 22.8638 18.2665 22.8604 18.2464V14.421C22.8604 14.421 22.8604 14.4143 22.8604 14.4109V12.0079C22.8604 10.9125 22.4311 9.88121 21.6573 9.10604L14.3401 1.80932C12.7348 0.208418 10.1257 0.208418 8.52372 1.80932L1.20319 9.10604C0.425855 9.88459 0 10.9125 0 12.0045V14.4177V14.4278V18.2936C0 18.297 0 18.3002 0 18.3036C0 18.3541 0.0101449 18.4047 0.0236536 18.452C0.0270351 18.4586 0.0270346 18.4687 0.030416 18.4755C0.0574503 18.5563 0.101392 18.6305 0.162223 18.6912L4.0489 22.5636L8.52711 27.0295C9.30094 27.8045 10.3318 28.2326 11.4302 28.2326C11.4302 28.2326 11.4302 28.2326 11.4336 28.2326C12.532 28.2326 13.5662 27.8045 14.3401 27.0295L18.8216 22.5636L22.6814 18.7114C22.7928 18.6136 22.8672 18.4687 22.8672 18.3069ZM18.2032 21.6302H4.66401L1.87913 18.853H20.9847L18.2032 21.6302ZM4.67416 14.967H18.1897L20.9881 17.7576H1.87913L4.67416 14.967ZM17.0912 13.8717H5.77256L8.1046 11.5462C8.40199 11.2496 8.80421 11.0811 9.22672 11.0811H13.6337C14.0528 11.0811 14.4584 11.2462 14.7558 11.5428L17.0912 13.8717ZM1.1018 12.0079C1.1018 11.2057 1.4161 10.4508 1.98389 9.88121L9.30094 2.58449C10.4772 1.41162 12.3866 1.41162 13.5629 2.58449L20.8765 9.88121C21.4443 10.4474 21.7586 11.2024 21.7586 12.0079V13.8717H19.5855C18.9839 13.8717 18.4093 13.6324 17.9836 13.2111L15.3001 10.5384C14.9452 10.1845 14.4652 9.9857 13.9617 9.9857H8.89872C8.39861 9.9857 7.91531 10.1845 7.56044 10.5384L4.88032 13.2111C4.45447 13.6357 3.87991 13.8717 3.27833 13.8717H1.09842V12.0079H1.1018ZM13.5629 26.2543C12.9916 26.8205 12.238 27.1338 11.4336 27.1338C10.6292 27.1338 9.87561 26.8205 9.3077 26.2543L5.76581 22.7254H17.1047L13.5629 26.2543Z" fill="#242576"/>
</svg>
