<svg width="26" height="24" viewBox="0 0 26 24" fill="none" xmlns="http://www.w3.org/2000/svg">
<g clip-path="url(#clip0_1000_353)">
<path fill-rule="evenodd" clip-rule="evenodd" d="M10.0129 1.46615C9.94007 1.03571 10.5461 0.861774 10.7126 1.2653L11.0374 2.05216C11.0477 2.07716 11.0555 2.10248 11.061 2.1278C11.8396 1.94009 12.624 1.84564 13.4008 1.83827C13.3999 1.8122 13.4013 1.78549 13.4052 1.75868L13.5292 0.918505C13.5928 0.486667 14.223 0.508463 14.2566 0.943719L14.3221 1.79041C14.3243 1.81754 14.3238 1.84436 14.3212 1.87043C15.1111 1.93303 15.8874 2.08528 16.6355 2.32075C16.6426 2.29564 16.6523 2.27075 16.6643 2.2465L17.0425 1.48432C17.2365 1.09318 17.8291 1.30868 17.7266 1.73304L17.5269 2.56007C17.5205 2.58645 17.512 2.61167 17.5014 2.63549C18.2283 2.93645 18.9211 3.31861 19.565 3.77545C19.5793 3.75472 19.5955 3.73475 19.6139 3.71605L20.2091 3.10803C20.5144 2.79607 21.0114 3.184 20.7828 3.55601L20.3373 4.2809C20.3238 4.30269 20.3089 4.32299 20.2925 4.34147C20.9471 4.89874 21.5376 5.54083 22.0452 6.25932C22.044 6.19009 22.0436 6.12139 22.0432 6.05387V6.0418C22.0417 5.69735 22.3531 5.43261 22.7061 5.38325C22.8748 5.36092 23.0461 5.39511 23.1933 5.48058C23.3404 5.56605 23.455 5.69789 23.5192 5.85547C23.7202 6.36658 23.7541 6.92801 23.6161 7.45953C23.6049 7.50739 23.5917 7.55515 23.5767 7.60932L23.5766 7.60964L23.5763 7.61081C23.5706 7.63111 23.5647 7.65237 23.5587 7.67481C24.0746 7.96562 24.4792 8.41979 24.7086 8.96573C24.893 9.40536 24.7181 9.8544 24.3118 10.0327C24.1025 10.1227 23.8975 10.0991 23.7098 10.0008C23.8756 10.7309 23.9599 11.4654 23.9676 12.1933C23.9894 12.1932 24.0115 12.1947 24.0339 12.198L24.8738 12.3218C25.3058 12.3856 25.284 13.0157 24.8487 13.0494L24.0021 13.1149C23.9799 13.1166 23.958 13.1167 23.9365 13.1152C23.8746 13.9063 23.7228 14.6838 23.4875 15.433C23.5073 15.4396 23.5268 15.4476 23.5461 15.4571L24.3081 15.8352C24.6993 16.0292 24.4838 16.6218 24.0594 16.5194L23.2324 16.3197C23.2118 16.3147 23.1918 16.3082 23.1728 16.3007C22.8717 17.029 22.4891 17.7231 22.0315 18.3682C22.0471 18.3798 22.0621 18.3927 22.0765 18.4066L22.6844 19.0017C22.9964 19.3072 22.6083 19.8041 22.2364 19.5756L21.5117 19.13C21.4951 19.1199 21.4794 19.1088 21.4647 19.0969C20.9576 19.6926 20.3801 20.2354 19.7388 20.7108C19.7494 20.7261 19.7592 20.7422 19.7681 20.7592L20.1617 21.5116C20.364 21.8984 19.8414 22.2512 19.5582 21.9188L19.0077 21.2725C18.9952 21.2578 18.9839 21.2427 18.9737 21.2269C18.4316 21.5587 17.8515 21.8454 17.2363 22.0805C17.1019 22.1319 16.9671 22.1803 16.832 22.2258C16.8373 22.2432 16.8415 22.2612 16.8447 22.2798L16.9868 23.1189C17.0596 23.5494 16.4536 23.7234 16.2871 23.3198L15.9624 22.533C15.9553 22.516 15.9495 22.499 15.9448 22.4818C15.1641 22.6702 14.3777 22.7651 13.599 22.7722C13.5986 22.7902 13.5971 22.8084 13.5943 22.8266L13.4705 23.6666C13.4068 24.0985 12.7767 24.0767 12.7431 23.6414L12.6776 22.7949C12.6761 22.7763 12.6759 22.7579 12.6767 22.7398C11.8848 22.6767 11.1067 22.5235 10.3571 22.2869C10.351 22.3044 10.3438 22.3217 10.3353 22.3388L9.95717 23.1009C9.76315 23.4919 9.17063 23.2765 9.27308 22.8521L9.47276 22.0252C9.47736 22.0063 9.48302 21.9882 9.48975 21.9705C8.76165 21.6683 8.06796 21.2843 7.4233 20.8254C7.41197 20.8406 7.39937 20.8553 7.38569 20.8691L6.7906 21.4772C6.48526 21.7891 5.98826 21.4011 6.21689 21.0292L6.66229 20.3044C6.67255 20.2877 6.68366 20.2721 6.69563 20.2574C6.10086 19.7493 5.5593 19.1711 5.08505 18.5291C5.06881 18.5406 5.0515 18.5513 5.03313 18.5608L4.28088 18.9543C3.89402 19.1566 3.54125 18.6341 3.87362 18.351L4.51988 17.8004C4.53612 17.7867 4.553 17.7743 4.57031 17.7633C4.3109 17.3376 4.07907 16.8886 3.87821 16.4178L2.45108 18.3096C2.26197 18.5604 1.89306 18.5871 1.69552 18.343C0.343382 16.6714 0.176289 14.4607 0.308767 13.1102C0.340712 12.7854 0.680669 12.6063 0.98131 12.7331L3.11881 13.6349C3.06528 13.2197 3.03729 12.8047 3.03387 12.3918C3.01155 12.392 2.98879 12.3905 2.96582 12.3871L2.12586 12.2633C1.69392 12.1996 1.71571 11.5695 2.15097 11.5357L2.99755 11.4702C3.02116 11.4684 3.04445 11.4685 3.06732 11.4703C3.1311 10.6799 3.28462 9.90323 3.52137 9.15494C3.49851 9.14799 3.47586 9.13902 3.45364 9.12801L2.69157 8.74992C2.30043 8.5559 2.51593 7.96338 2.94028 8.06583L3.76731 8.26551C3.79189 8.27139 3.81539 8.2793 3.83772 8.2888C4.13986 7.5622 4.5233 6.86989 4.98142 6.22652C4.96112 6.21252 4.94167 6.1965 4.9233 6.17855L4.31529 5.58336C4.00332 5.27801 4.39135 4.781 4.76325 5.00964L5.48815 5.45504C5.50994 5.4685 5.53024 5.48357 5.54873 5.49981C6.05588 4.90622 6.63302 4.36551 7.27373 3.8918C7.25813 3.8715 7.24402 3.84959 7.23163 3.82598L6.83804 3.07353C6.63569 2.68667 7.15834 2.334 7.44146 2.66626L7.9921 3.31274C8.00962 3.33336 8.0249 3.35504 8.03793 3.37759C8.57725 3.04842 9.15407 2.7637 9.7655 2.53004C9.90172 2.47791 10.0385 2.42887 10.1754 2.38282C10.1666 2.35825 10.1596 2.33239 10.1551 2.30558L10.0129 1.46615ZM5.08259 15.5221C6.8593 20.1716 12.0686 22.5004 16.718 20.7237C21.324 18.9636 23.6526 13.8344 21.9681 9.21829C21.4095 9.68752 20.7393 10.1126 19.9601 10.3982C18.2118 11.039 16.8769 11.3182 15.7504 11.4285C14.4693 13.1903 12.2912 13.9253 11.2375 14.0766L11.3718 11.4386C10.6855 11.4671 9.94808 11.5575 9.08569 11.779C7.46657 12.1949 5.95845 12.8733 4.58954 13.661C4.68505 14.2851 4.84808 14.9085 5.08259 15.5221ZM7.37896 15.749C6.94723 15.8258 6.53494 15.5381 6.45802 15.1063C6.3812 14.6745 6.66892 14.2622 7.10065 14.1854C7.53249 14.1086 7.94477 14.3963 8.02159 14.828C8.0984 15.2599 7.81069 15.6721 7.37896 15.749ZM11.0394 15.8446C10.7576 15.8948 10.4886 15.707 10.4384 15.4252C10.3883 15.1434 10.5761 14.8743 10.8578 14.8242C11.1396 14.7741 11.4087 14.9618 11.4589 15.2436C11.509 15.5253 11.3212 15.7945 11.0394 15.8446ZM15.6878 15.6631C15.406 15.7132 15.1369 15.5254 15.0868 15.2436C15.0367 14.9619 15.2244 14.6928 15.5062 14.6426C15.7879 14.5924 16.0571 14.7803 16.1072 15.0621C16.1574 15.3438 15.9696 15.613 15.6878 15.6631ZM16.6559 18.1456C16.706 18.4275 16.9751 18.6153 17.2568 18.5651C17.5387 18.515 17.7265 18.2459 17.6763 17.9641C17.6262 17.6823 17.3571 17.4945 17.0753 17.5447C16.7935 17.5948 16.6057 17.8639 16.6559 18.1456ZM11.2235 19.4105C10.9417 19.4607 10.6725 19.2729 10.6224 18.991C10.5723 18.7093 10.76 18.4402 11.0419 18.3901C11.3236 18.3399 11.5927 18.5277 11.6428 18.8095C11.6931 19.0913 11.5052 19.3604 11.2235 19.4105ZM8.42682 17.2202C8.47693 17.5019 8.74605 17.6898 9.02778 17.6397C9.30962 17.5894 9.49744 17.3204 9.44723 17.0386C9.39712 16.7569 9.128 16.569 8.84627 16.6191C8.56443 16.6694 8.37661 16.9384 8.42682 17.2202ZM13.4869 17.3871C13.2051 17.4372 12.936 17.2495 12.8859 16.9677C12.8357 16.6859 13.0235 16.4168 13.3053 16.3667C13.5871 16.3165 13.8562 16.5043 13.9063 16.786C13.9565 17.0679 13.7687 17.337 13.4869 17.3871ZM17.9106 15.2673C17.9875 15.6992 18.3998 15.9869 18.8315 15.9101C19.2633 15.8331 19.551 15.4209 19.4742 14.9891C19.3973 14.5574 18.9851 14.2697 18.5533 14.3465C18.1215 14.4233 17.8338 14.8356 17.9106 15.2673ZM13.4659 19.2919C13.5427 19.7236 13.955 20.0113 14.3868 19.9345C14.8185 19.8577 15.1062 19.4454 15.0294 19.0137C14.9526 18.582 14.5403 18.2943 14.1086 18.3711C13.6767 18.4479 13.389 18.8602 13.4659 19.2919ZM19.5374 7.10825C19.6963 7.80643 19.2842 8.49553 18.6169 8.64746C17.9496 8.79927 17.2798 8.35643 17.1209 7.65814C16.9621 6.95996 17.3742 6.27086 18.0415 6.11893C18.7087 5.96712 19.3784 6.40996 19.5374 7.10825Z" fill="url(#paint0_linear_1000_353)"/>
<path d="M18.6686 8.04079C18.9691 7.97231 19.1487 7.63577 19.0697 7.28898C18.9909 6.94218 18.6832 6.71654 18.3827 6.78492C18.0821 6.85329 17.9025 7.18983 17.9815 7.53663C18.0604 7.88342 18.368 8.10917 18.6686 8.04079Z" fill="#4A98EA"/>
</g>
<defs>
<linearGradient id="paint0_linear_1000_353" x1="14.866" y1="0.605685" x2="25.0993" y2="17.2539" gradientUnits="userSpaceOnUse">
<stop offset="0.0677083" stop-color="#874FFF"/>
<stop offset="0.463542" stop-color="#36AFE2"/>
<stop offset="0.859375" stop-color="#41FF54"/>
</linearGradient>
<clipPath id="clip0_1000_353">
<rect width="25" height="23.3974" fill="white" transform="translate(0.213867 0.605713)"/>
</clipPath>
</defs>
</svg>
