<svg width="34" height="34" viewBox="0 0 34 34" fill="none" xmlns="http://www.w3.org/2000/svg">
<path d="M33.3693 18.5186C33.3693 18.5505 33.3693 18.5825 33.3693 18.6145C32.6656 26.4149 26.4643 32.5209 18.887 33.2881C18.823 33.2881 18.7915 33.2881 18.7275 33.2881L33.3693 18.5186Z" fill="#C4FF61"/>
<path d="M24.2575 2.37452C23.8421 2.18272 23.4268 1.99091 23.0114 1.83107C22.1796 1.51138 21.3173 1.25562 20.4216 1.06381C19.3349 0.840022 18.2482 0.712158 17.0966 0.712158C16.5532 0.712158 16.0099 0.744119 15.4665 0.77609C11.6946 1.15972 8.33804 2.79012 5.7483 5.28368C5.58787 5.44353 5.39689 5.63534 5.23646 5.79519C2.77467 8.38466 1.17613 11.8053 0.824714 15.5456C0.793202 16.0252 0.760742 16.5047 0.760742 17.0162C0.760742 18.2311 0.888704 19.4138 1.14462 20.5647C1.33656 21.4279 1.59247 22.2591 1.91142 23.0903C2.10335 23.5378 2.2953 23.9854 2.48724 24.401C2.87111 25.1363 3.28651 25.8396 3.76588 26.5109L6.45112 23.7936L23.7142 6.33865L26.4004 3.62131C25.7606 3.17375 25.0253 2.75815 24.2575 2.37452ZM4.88504 20.1172C4.85258 20.0212 4.82107 19.8934 4.82107 19.7975C4.62913 18.9024 4.53364 17.9752 4.53364 17.0482C4.53364 13.8193 5.74829 10.7823 7.95416 8.44859L8.40107 8.00103C10.7674 5.73124 13.8365 4.48447 17.129 4.48447C17.9923 4.48447 18.8555 4.58037 19.6863 4.74021C19.8143 4.77218 19.9422 4.80416 20.0702 4.83612L4.88504 20.1172Z" fill="#C4FF61"/>
<path d="M11.4699 32.393C11.0545 32.2332 10.6706 32.0733 10.2877 31.9135C9.48841 31.5299 8.72064 31.1143 7.98535 30.6028L30.5559 7.80908C31.0353 8.51239 31.4831 9.24764 31.8345 10.0469C32.0265 10.4625 32.2184 10.8781 32.3779 11.2937L11.4699 32.393Z" fill="#C4FF61"/>
</svg>
