<svg width="25" height="26" viewBox="0 0 25 26" fill="none" xmlns="http://www.w3.org/2000/svg">
<g clip-path="url(#clip0_1090_1892)">
<path d="M12.5215 8.68384C14.031 7.1796 15.5353 5.66477 17.0554 4.16583C18.5755 2.66689 20.9378 2.85227 22.1825 4.55248C23.0935 5.80248 22.9982 7.64041 21.9177 8.7474C20.4717 10.2305 18.9939 11.6817 17.5268 13.1436C17.405 13.2495 17.2937 13.366 17.1984 13.4932C17.299 13.5461 17.4208 13.5832 17.5003 13.6627C19.6613 15.8131 21.817 17.9688 23.9728 20.1245C24.9579 21.1044 25.2069 22.2855 24.8255 23.562C24.4389 24.8597 23.4908 25.6118 22.156 25.8449C21.0437 26.0355 20.085 25.686 19.2958 24.9021C17.1136 22.741 14.9526 20.5641 12.781 18.3925C12.7016 18.3131 12.6115 18.2389 12.5268 18.1648C12.5268 18.1489 12.5268 18.1383 12.5268 18.1224C13.3213 17.3332 14.1052 16.5281 14.9156 15.7495C16.1444 14.5684 16.1708 12.3332 14.9685 11.1256C14.1581 10.3152 13.3372 9.49952 12.5215 8.68384Z" fill="#388DFE"/>
<path d="M12.5336 18.1279C12.5336 18.1437 12.5336 18.1543 12.5336 18.1702C11.0082 19.6904 9.47745 21.2052 7.94673 22.7253C6.78147 23.8747 4.94885 24.0071 3.62999 23.0378C1.97745 21.8143 1.79207 19.4467 3.24864 17.9743C4.66813 16.5389 6.10351 15.1141 7.53359 13.6893C7.62893 13.6098 7.72427 13.5357 7.82491 13.4668C7.70308 13.3344 7.62893 13.2497 7.54948 13.1702C5.39906 11.0198 3.25393 8.87468 1.09821 6.72425C0.372576 6.00391 -0.0193727 5.13527 0.03889 4.12362C0.176602 2.13209 1.84503 0.988022 3.20626 0.972132C4.34503 0.956243 5.22427 1.35878 6.00287 2.15328C8.06855 4.25603 10.166 6.32701 12.2476 8.40857C12.3376 8.49862 12.4171 8.59396 12.4965 8.684C12.4224 8.76874 12.3535 8.85879 12.2741 8.94353C11.5749 9.64268 10.8811 10.3418 10.1766 11.0357C9.57808 11.613 9.21792 12.3916 9.16495 13.2179C9.0908 14.1024 9.398 14.9711 10.0124 15.612C10.8334 16.4753 11.6967 17.291 12.5336 18.1279Z" fill="#4BE0B4"/>
<path d="M12.533 18.128C11.6908 17.2911 10.8328 16.4755 10.0224 15.6174C9.408 14.9765 9.10079 14.1026 9.17495 13.2234C9.22791 12.3971 9.58808 11.6185 10.1813 11.0411C10.8858 10.3473 11.5796 9.64814 12.2788 8.94899C12.3582 8.86954 12.4271 8.7795 12.5012 8.68945H12.5224C13.3381 9.50513 14.1538 10.3208 14.9694 11.1365C16.1771 12.3441 16.1506 14.5846 14.9165 15.7604C14.1114 16.5337 13.3275 17.3335 12.533 18.128Z" fill="#23195F"/>
</g>
<defs>
<clipPath id="clip0_1090_1892">
<rect width="25" height="25" fill="white" transform="translate(0 0.920654)"/>
</clipPath>
</defs>
</svg>
