<svg width="34" height="34" viewBox="0 0 34 34" fill="none" xmlns="http://www.w3.org/2000/svg">
<g clip-path="url(#clip0_972_361)">
<mask id="mask0_972_361" style="mask-type:luminance" maskUnits="userSpaceOnUse" x="0" y="0" width="34" height="34">
<path d="M33.2645 17.0241C33.2645 26.0424 25.954 33.3529 16.9358 33.3529C7.9179 33.3529 0.607422 26.0424 0.607422 17.0241C0.607422 8.00628 7.9179 0.695801 16.9358 0.695801C25.954 0.695801 33.2645 8.00628 33.2645 17.0241Z" fill="white"/>
</mask>
<g mask="url(#mask0_972_361)">
<path d="M0.607422 0.695801H33.2161V33.3045H0.607422V0.695801Z" fill="url(#paint0_linear_972_361)"/>
<path d="M0.607422 0.695801H33.2161V33.3045H0.607422V0.695801Z" fill="url(#paint1_linear_972_361)"/>
</g>
<mask id="mask1_972_361" style="mask-type:luminance" maskUnits="userSpaceOnUse" x="4" y="6" width="6" height="7">
<path d="M4.52051 6.6958H9.21616V12.5654H4.52051V6.6958Z" fill="white"/>
</mask>
<g mask="url(#mask1_972_361)">
<mask id="mask2_972_361" style="mask-type:luminance" maskUnits="userSpaceOnUse" x="0" y="0" width="34" height="34">
<path d="M33.2645 17.0241C33.2645 26.0424 25.954 33.3529 16.9358 33.3529C7.9179 33.3529 0.607422 26.0424 0.607422 17.0241C0.607422 8.00628 7.9179 0.695801 16.9358 0.695801C25.954 0.695801 33.2645 8.00628 33.2645 17.0241Z" fill="white"/>
</mask>
<g mask="url(#mask2_972_361)">
<path d="M8.85031 12.4679H4.98566C4.88963 12.4676 4.7976 12.4294 4.72966 12.3616C4.66172 12.2937 4.62339 12.2017 4.62305 12.1057V7.07259C4.62322 6.97645 4.66147 6.88429 4.72943 6.81628C4.79738 6.74827 4.88952 6.70996 4.98566 6.70972H8.85044C8.94651 6.71006 9.03854 6.74842 9.10642 6.81642C9.17429 6.88441 9.21248 6.97651 9.21266 7.07259V12.1055C9.21235 12.2015 9.17407 12.2935 9.10618 12.3614C9.03829 12.4292 8.9463 12.4676 8.85031 12.4679Z" fill="#F8A171"/>
</g>
</g>
<mask id="mask3_972_361" style="mask-type:luminance" maskUnits="userSpaceOnUse" x="5" y="0" width="4" height="5">
<path d="M5.04199 0.695801H8.56373V4.73928H5.04199V0.695801Z" fill="white"/>
</mask>
<g mask="url(#mask3_972_361)">
<mask id="mask4_972_361" style="mask-type:luminance" maskUnits="userSpaceOnUse" x="0" y="0" width="34" height="34">
<path d="M33.2645 17.0241C33.2645 26.0424 25.954 33.3529 16.9358 33.3529C7.9179 33.3529 0.607422 26.0424 0.607422 17.0241C0.607422 8.00628 7.9179 0.695801 16.9358 0.695801C25.954 0.695801 33.2645 8.00628 33.2645 17.0241Z" fill="white"/>
</mask>
<g mask="url(#mask4_972_361)">
<path d="M8.08635 4.71721H5.51079C5.41479 4.71693 5.32281 4.67868 5.25492 4.61082C5.18703 4.54295 5.14875 4.45098 5.14844 4.35499V0.822553C5.14871 0.726537 5.18698 0.634532 5.25487 0.566638C5.32276 0.498745 5.41477 0.46048 5.51079 0.460205H8.08635C8.18234 0.460515 8.27431 0.498794 8.34218 0.566684C8.41005 0.634574 8.44829 0.726559 8.44857 0.822553V4.35499C8.44826 4.45096 8.41 4.54291 8.34213 4.61077C8.27427 4.67863 8.18232 4.7169 8.08635 4.71721Z" fill="#FAAA71"/>
</g>
</g>
<mask id="mask5_972_361" style="mask-type:luminance" maskUnits="userSpaceOnUse" x="9" y="0" width="10" height="7">
<path d="M9.08594 0.956543H18.4772V6.4348H9.08594V0.956543Z" fill="white"/>
</mask>
<g mask="url(#mask5_972_361)">
<mask id="mask6_972_361" style="mask-type:luminance" maskUnits="userSpaceOnUse" x="0" y="0" width="34" height="34">
<path d="M33.2645 17.0241C33.2645 26.0424 25.954 33.3529 16.9358 33.3529C7.9179 33.3529 0.607422 26.0424 0.607422 17.0241C0.607422 8.00628 7.9179 0.695801 16.9358 0.695801C25.954 0.695801 33.2645 8.00628 33.2645 17.0241Z" fill="white"/>
</mask>
<g mask="url(#mask6_972_361)">
<path d="M18.0294 6.40827H9.57511C9.47914 6.40796 9.38719 6.3697 9.31932 6.30184C9.25146 6.23397 9.2132 6.14202 9.21289 6.04605V1.42631C9.21317 1.33032 9.25141 1.23833 9.31928 1.17044C9.38714 1.10255 9.47911 1.06427 9.57511 1.06396H18.0294C18.1254 1.06424 18.2174 1.1025 18.2853 1.1704C18.3532 1.23829 18.3914 1.3303 18.3917 1.42631V6.04605C18.3918 6.09366 18.3825 6.14083 18.3644 6.18484C18.3462 6.22885 18.3195 6.26883 18.2858 6.30249C18.2522 6.33615 18.2122 6.36283 18.1682 6.38098C18.1242 6.39913 18.077 6.40841 18.0294 6.40827Z" fill="#F9A471"/>
</g>
</g>
<mask id="mask7_972_361" style="mask-type:luminance" maskUnits="userSpaceOnUse" x="22" y="5" width="6" height="12">
<path d="M22.6514 5.78271H27.8688V16.6088H22.6514V5.78271Z" fill="white"/>
</mask>
<g mask="url(#mask7_972_361)">
<mask id="mask8_972_361" style="mask-type:luminance" maskUnits="userSpaceOnUse" x="0" y="0" width="34" height="34">
<path d="M33.2635 17.0244C33.2635 26.0427 25.9531 33.3531 16.9348 33.3531C7.91692 33.3531 0.606445 26.0427 0.606445 17.0244C0.606445 8.00652 7.91692 0.696045 16.9348 0.696045C25.9531 0.696045 33.2635 8.00652 33.2635 17.0244Z" fill="white"/>
</mask>
<g mask="url(#mask8_972_361)">
<path d="M27.4084 16.5535H23.0185C22.9225 16.5532 22.8305 16.515 22.7627 16.4471C22.6948 16.3792 22.6566 16.2873 22.6562 16.1913V6.16715C22.6566 6.07118 22.6948 5.97923 22.7627 5.91136C22.8305 5.8435 22.9225 5.80524 23.0185 5.80493H27.4059C27.5019 5.80524 27.5938 5.8435 27.6617 5.91136C27.7295 5.97923 27.7678 6.07118 27.7681 6.16715V16.1913C27.7713 16.3905 27.6082 16.5535 27.4084 16.5535Z" fill="#F7956B"/>
</g>
</g>
<mask id="mask9_972_361" style="mask-type:luminance" maskUnits="userSpaceOnUse" x="18" y="12" width="4" height="6">
<path d="M18.7373 12.4348H21.7373V17.1305H18.7373V12.4348Z" fill="white"/>
</mask>
<g mask="url(#mask9_972_361)">
<mask id="mask10_972_361" style="mask-type:luminance" maskUnits="userSpaceOnUse" x="0" y="0" width="34" height="34">
<path d="M33.2645 17.0241C33.2645 26.0424 25.954 33.3529 16.9358 33.3529C7.9179 33.3529 0.607422 26.0424 0.607422 17.0241C0.607422 8.00628 7.9179 0.695801 16.9358 0.695801C25.954 0.695801 33.2645 8.00628 33.2645 17.0241Z" fill="white"/>
</mask>
<g mask="url(#mask10_972_361)">
<path d="M21.2506 17.0361H19.1972C19.1012 17.0358 19.0093 16.9976 18.9414 16.9297C18.8735 16.8618 18.8353 16.7699 18.835 16.6739V12.8908C18.8353 12.7948 18.8735 12.7029 18.9414 12.635C19.0093 12.5671 19.1012 12.5289 19.1972 12.5286H21.2506C21.3466 12.5289 21.4385 12.5671 21.5064 12.635C21.5743 12.7029 21.6125 12.7948 21.6128 12.8908V16.6739C21.6125 16.7699 21.5743 16.8618 21.5064 16.9297C21.4385 16.9976 21.3466 17.0358 21.2506 17.0361Z" fill="#FAAB72"/>
</g>
</g>
<mask id="mask11_972_361" style="mask-type:luminance" maskUnits="userSpaceOnUse" x="16" y="19" width="3" height="5">
<path d="M16.2598 19.2175H18.4772V23.0001H16.2598V19.2175Z" fill="white"/>
</mask>
<g mask="url(#mask11_972_361)">
<mask id="mask12_972_361" style="mask-type:luminance" maskUnits="userSpaceOnUse" x="0" y="0" width="34" height="34">
<path d="M33.2635 17.0244C33.2635 26.0427 25.9531 33.3531 16.9348 33.3531C7.91692 33.3531 0.606445 26.0427 0.606445 17.0244C0.606445 8.00652 7.91692 0.696045 16.9348 0.696045C25.9531 0.696045 33.2635 8.00652 33.2635 17.0244Z" fill="white"/>
</mask>
<g mask="url(#mask12_972_361)">
<path d="M18.0281 22.8939H16.6601C16.5641 22.8936 16.4721 22.8553 16.4042 22.7874C16.3364 22.7196 16.2981 22.6276 16.2979 22.5316V19.5938C16.2981 19.4978 16.3364 19.4058 16.4042 19.3379C16.4721 19.27 16.5641 19.2318 16.6601 19.2314H18.0281C18.1241 19.2317 18.2161 19.27 18.284 19.3379C18.3519 19.4058 18.3901 19.4978 18.3904 19.5938V22.5316C18.3901 22.6276 18.3519 22.7196 18.284 22.7875C18.2161 22.8554 18.1241 22.8936 18.0281 22.8939Z" fill="#F9A571"/>
</g>
</g>
<mask id="mask13_972_361" style="mask-type:luminance" maskUnits="userSpaceOnUse" x="19" y="23" width="3" height="4">
<path d="M19.3906 23.1306H21.7385V26.6524H19.3906V23.1306Z" fill="white"/>
</mask>
<g mask="url(#mask13_972_361)">
<mask id="mask14_972_361" style="mask-type:luminance" maskUnits="userSpaceOnUse" x="0" y="0" width="34" height="34">
<path d="M33.2635 17.0244C33.2635 26.0427 25.9531 33.3531 16.9348 33.3531C7.91692 33.3531 0.606445 26.0427 0.606445 17.0244C0.606445 8.00652 7.91692 0.696045 16.9348 0.696045C25.9531 0.696045 33.2635 8.00652 33.2635 17.0244Z" fill="white"/>
</mask>
<g mask="url(#mask14_972_361)">
<path d="M21.2496 26.6198H19.7608C19.6648 26.6195 19.5728 26.5813 19.5049 26.5134C19.437 26.4455 19.3987 26.3536 19.3984 26.2576V23.5611C19.3987 23.4651 19.437 23.3731 19.5049 23.3052C19.5728 23.2373 19.6648 23.199 19.7608 23.1987H21.2496C21.3456 23.199 21.4375 23.2373 21.5054 23.3052C21.5733 23.3731 21.6115 23.4651 21.6118 23.5611V26.2574C21.6115 26.3534 21.5732 26.4453 21.5054 26.5132C21.4375 26.5811 21.3455 26.6193 21.2496 26.6196V26.6198Z" fill="#FBB171"/>
</g>
</g>
<mask id="mask15_972_361" style="mask-type:luminance" maskUnits="userSpaceOnUse" x="21" y="26" width="4" height="7">
<path d="M21.6074 26.7827H24.9987V32.3914H21.6074V26.7827Z" fill="white"/>
</mask>
<g mask="url(#mask15_972_361)">
<mask id="mask16_972_361" style="mask-type:luminance" maskUnits="userSpaceOnUse" x="0" y="0" width="34" height="34">
<path d="M33.2626 17.0244C33.2626 26.0427 25.9521 33.3531 16.9338 33.3531C7.91595 33.3531 0.605469 26.0427 0.605469 17.0244C0.605469 8.00652 7.91595 0.696045 16.9338 0.696045C25.9521 0.696045 33.2626 8.00652 33.2626 17.0244Z" fill="white"/>
</mask>
<g mask="url(#mask16_972_361)">
<path d="M21.9735 26.8191H24.6306C24.7266 26.8194 24.8187 26.8576 24.8865 26.9255C24.9544 26.9934 24.9927 27.0854 24.993 27.1814V32.0126C24.9927 32.1086 24.9544 32.2006 24.8865 32.2684C24.8186 32.3363 24.7266 32.3746 24.6306 32.3748H21.9737C21.8777 32.3746 21.7857 32.3363 21.7178 32.2684C21.6499 32.2006 21.6116 32.1086 21.6113 32.0126V27.1813C21.6113 26.9853 21.7744 26.8191 21.9735 26.8191Z" fill="#F89E71"/>
</g>
</g>
<mask id="mask17_972_361" style="mask-type:luminance" maskUnits="userSpaceOnUse" x="0" y="22" width="13" height="12">
<path d="M0.607422 22.8696H12.9987V33.3044H0.607422V22.8696Z" fill="white"/>
</mask>
<g mask="url(#mask17_972_361)">
<mask id="mask18_972_361" style="mask-type:luminance" maskUnits="userSpaceOnUse" x="0" y="0" width="34" height="34">
<path d="M33.2645 17.0241C33.2645 26.0424 25.954 33.3529 16.9358 33.3529C7.9179 33.3529 0.607422 26.0424 0.607422 17.0241C0.607422 8.00628 7.9179 0.695801 16.9358 0.695801C25.954 0.695801 33.2645 8.00628 33.2645 17.0241Z" fill="white"/>
</mask>
<g mask="url(#mask18_972_361)">
<path d="M0.516645 33.2803H12.5125C12.6085 33.28 12.7005 33.2417 12.7684 33.1738C12.8363 33.1058 12.8746 33.0138 12.8748 32.9177V23.2563C12.8746 23.1602 12.8364 23.0681 12.7685 23.0002C12.7006 22.9322 12.6085 22.8939 12.5125 22.8936H0.516645C0.420594 22.8939 0.32857 22.9322 0.260676 23.0001C0.192782 23.0681 0.154538 23.1601 0.154297 23.2562V32.9176C0.154503 33.0137 0.192733 33.1058 0.26063 33.1737C0.328528 33.2417 0.420572 33.28 0.516645 33.2803Z" fill="#FCBB71"/>
</g>
</g>
<path d="M16.9367 2.20521C18.9385 2.20521 20.8772 2.59756 22.7038 3.36738C24.4673 4.11347 26.0523 5.18225 27.4138 6.54425C28.7757 7.9056 29.8447 9.49077 30.59 11.2543C31.363 13.0807 31.7527 15.0194 31.7527 17.0208C31.7527 19.0227 31.3605 20.9613 30.59 22.7879C29.8447 24.5514 28.7757 26.1365 27.4138 27.4979C26.0523 28.8597 24.4673 29.9287 22.7038 30.6747C20.8773 31.4476 18.9385 31.8369 16.9367 31.8369C14.9354 31.8369 12.9967 31.4445 11.1701 30.6747C9.40662 29.9287 7.82157 28.8598 6.45957 27.4978C5.09822 26.1365 4.02931 24.5513 3.28335 22.7879C2.5104 20.9645 2.11805 19.0227 2.11805 17.0239C2.11805 15.025 2.5104 13.0839 3.28022 11.2573C4.02631 9.49377 5.09509 7.90873 6.45709 6.54673C7.81844 5.18538 9.40361 4.11647 11.1671 3.37051C12.9936 2.59756 14.9354 2.20521 16.9367 2.20521ZM16.9367 0.695557C7.91835 0.695557 0.608398 8.00551 0.608398 17.0239C0.608398 26.0427 7.91835 33.3525 16.9367 33.3525C25.9555 33.3525 33.2655 26.0426 33.2655 17.0238C33.2655 8.00551 25.9525 0.695557 16.9367 0.695557Z" fill="#FFD48A"/>
<mask id="mask19_972_361" style="mask-type:luminance" maskUnits="userSpaceOnUse" x="0" y="0" width="34" height="34">
<path d="M33.2645 17.0241C33.2645 26.0424 25.954 33.3529 16.9358 33.3529C7.9179 33.3529 0.607422 26.0424 0.607422 17.0241C0.607422 8.00628 7.9179 0.695801 16.9358 0.695801C25.954 0.695801 33.2645 8.00628 33.2645 17.0241Z" fill="white"/>
</mask>
<g mask="url(#mask19_972_361)">
<mask id="mask20_972_361" style="mask-type:luminance" maskUnits="userSpaceOnUse" x="0" y="0" width="34" height="34">
<path d="M0.606445 0.696045H33.2151V33.3047H0.606445V0.696045Z" fill="black" fill-opacity="0.7"/>
</mask>
<g mask="url(#mask20_972_361)">
<mask id="mask21_972_361" style="mask-type:luminance" maskUnits="userSpaceOnUse" x="0" y="0" width="34" height="34">
<path d="M0.606445 0.696045H33.2151V33.3047H0.606445V0.696045Z" fill="white"/>
</mask>
<g mask="url(#mask21_972_361)">
<path d="M16.9349 34.4068C14.5891 34.4068 12.3126 33.9477 10.1686 33.0392C8.09733 32.1633 6.24072 30.9105 4.64341 29.3131C3.04611 27.7189 1.79328 25.8592 0.917413 23.7905C0.0119352 21.647 -0.450195 19.3706 -0.450195 17.0243C-0.450195 14.6784 0.00893518 12.4019 0.917413 10.258C1.79328 8.18668 3.04611 6.33007 4.64341 4.73277C6.24072 3.13546 8.09746 1.88264 10.1688 1.00677C12.3097 0.0982907 14.5862 -0.36084 16.9351 -0.36084C19.2813 -0.36084 21.5578 0.0982907 23.7014 1.00677C25.7729 1.88264 27.6297 3.13546 29.227 4.73277C30.8243 6.33007 32.0771 8.18668 32.9525 10.258C33.8585 12.4019 34.3206 14.6784 34.3206 17.0243C34.3206 19.3706 33.8615 21.647 32.9525 23.7906C32.0772 25.8622 30.8243 27.7189 29.227 29.3162C27.6297 30.9135 25.7731 32.1663 23.7014 33.0417C21.5578 33.9477 19.2813 34.4067 16.9351 34.4067L16.9349 34.4068ZM16.9349 3.26238C15.0752 3.26238 13.2756 3.6246 11.5789 4.34355C9.93933 5.03747 8.4688 6.02799 7.20372 7.29307C5.93863 8.55816 4.94563 10.0287 4.2542 11.6682C3.53524 13.3618 3.17289 15.1646 3.17289 17.0243C3.17289 18.8844 3.53524 20.684 4.2542 22.3807C4.94811 24.0203 5.93863 25.4908 7.20372 26.7559C8.4688 28.021 9.93933 29.014 11.5789 29.7054C13.2725 30.4214 15.0752 30.7867 16.9349 30.7867C18.7951 30.7867 20.5947 30.4244 22.2914 29.7054C23.9309 29.011 25.4015 28.021 26.6665 26.7559C27.9316 25.4908 28.9246 24.0203 29.6161 22.3807C30.332 20.6872 30.6974 18.8844 30.6974 17.0243C30.6974 15.1646 30.335 13.3649 29.6161 11.6682C28.9216 10.0287 27.9316 8.55816 26.6665 7.29307C25.4015 6.02799 23.9309 5.03499 22.2914 4.34355C20.5947 3.6246 18.7921 3.26238 16.9349 3.26238Z" fill="#F04B36"/>
</g>
</g>
</g>
<path d="M16.9367 2.20521C18.9385 2.20521 20.8772 2.59756 22.7038 3.36738C24.4673 4.11347 26.0523 5.18225 27.4138 6.54425C28.7757 7.9056 29.8447 9.49077 30.59 11.2543C31.363 13.0807 31.7527 15.0194 31.7527 17.0208C31.7527 19.0227 31.3605 20.9613 30.59 22.7879C29.8447 24.5514 28.7757 26.1365 27.4138 27.4979C26.0523 28.8597 24.4673 29.9287 22.7038 30.6747C20.8773 31.4476 18.9385 31.8369 16.9367 31.8369C14.9354 31.8369 12.9967 31.4445 11.1701 30.6747C9.40662 29.9287 7.82157 28.8598 6.45957 27.4978C5.09822 26.1365 4.02931 24.5513 3.28335 22.7879C2.5104 20.9645 2.11805 19.0227 2.11805 17.0239C2.11805 15.025 2.5104 13.0839 3.28022 11.2573C4.02631 9.49377 5.09509 7.90873 6.45709 6.54673C7.81844 5.18538 9.40361 4.11647 11.1671 3.37051C12.9936 2.59756 14.9354 2.20521 16.9367 2.20521ZM16.9367 0.695557C7.91835 0.695557 0.608398 8.00551 0.608398 17.0239C0.608398 26.0427 7.91835 33.3525 16.9367 33.3525C25.9555 33.3525 33.2655 26.0426 33.2655 17.0238C33.2655 8.00551 25.9525 0.695557 16.9367 0.695557Z" fill="#FFD48A"/>
<path d="M13.416 20.1185C13.6031 20.303 13.7875 20.4869 13.9745 20.6713C14.0891 20.783 14.1222 20.7861 14.2312 20.6713C14.4637 20.4329 14.699 20.1976 14.9318 19.9586C14.9742 19.9138 15.0133 19.8985 15.0735 19.9194C15.4781 20.0615 15.8948 20.0737 16.3147 20.0284C16.4777 20.0101 16.4807 20.0101 16.4925 20.1853C16.3569 20.1976 16.224 20.2153 16.091 20.2244C15.9947 20.2307 15.8948 20.2276 15.798 20.2276H15.6834C15.5203 20.1914 15.3543 20.1608 15.1912 20.1129C15.1036 20.0855 15.0435 20.0977 14.9798 20.1669C14.7528 20.4059 14.5233 20.6425 14.2914 20.8768C14.2012 20.9674 14.1615 20.9674 14.0683 20.8768C13.8751 20.6837 13.6755 20.49 13.4884 20.2907C13.4523 20.2424 13.44 20.1731 13.416 20.1185Z" fill="#FE8C2C"/>
<path d="M7.33701 26.8713C7.31172 26.8571 7.28828 26.8398 7.26723 26.8198C7.15558 26.7021 7.04093 26.5875 6.92941 26.4667C6.91714 26.452 6.90801 26.4336 6.89875 26.4153L7.2371 26.0952L7.56932 25.7845L8.07071 25.3131C8.10384 25.2861 8.13997 25.2591 8.1731 25.2291C8.43965 24.9813 8.70543 24.7327 8.97045 24.4832L11.4248 22.1915C11.884 21.763 12.343 21.3308 12.8046 20.9024C12.9014 20.8117 13.0159 20.8147 13.1098 20.911C13.1551 20.9564 13.1973 21.0079 13.2428 21.0563C13.336 21.1587 13.336 21.2616 13.2366 21.3578C13.1454 21.4459 13.0528 21.5325 12.9589 21.6177C12.5181 22.0284 12.077 22.439 11.6393 22.8498C10.9994 23.4474 10.3589 24.0481 9.71588 24.6462C9.36893 24.9723 9.02145 25.2954 8.67449 25.6215C8.62297 25.6698 8.57758 25.7239 8.53232 25.7754L7.95554 26.2975L7.64171 26.5905L7.33701 26.8713ZM8.18836 27.6534L7.72623 27.2274L8.00693 26.9558L8.31214 26.672L8.84367 26.1768C8.8614 26.162 8.8828 26.1498 8.89767 26.1345C9.16975 25.8813 9.44132 25.6276 9.71288 25.3708L11.7448 23.4688C12.0052 23.2238 12.2669 22.9802 12.53 22.7381C12.6267 22.6475 12.7413 22.6536 12.8352 22.7528C12.8682 22.7891 12.8982 22.8228 12.9284 22.8589C13.0705 23.0067 13.0705 23.0912 12.9228 23.2304C12.3184 23.7949 11.7178 24.3625 11.114 24.9269C10.9056 25.12 10.6971 25.3107 10.4918 25.5068C10.2858 25.7012 10.0805 25.8963 9.87593 26.0922L9.32667 26.6028L8.94906 26.9588L8.74062 27.155L8.61997 27.2611L8.39067 27.472L8.18836 27.6534ZM6.11719 25.4916L6.31336 25.2831L6.40101 25.2139L6.64258 24.9815L6.89014 24.7486C6.92014 24.7309 6.94714 24.7095 6.97167 24.6886C7.08319 24.5795 7.19471 24.4679 7.30336 24.3594L7.44854 24.2172C7.4848 24.1964 7.5178 24.175 7.54793 24.148C7.7171 23.9911 7.88314 23.8341 8.05232 23.6771C8.32388 23.4204 8.59597 23.1636 8.86754 22.9068C8.98519 22.8014 9.10297 22.6958 9.21762 22.5868C9.62523 22.2067 10.0328 21.82 10.4434 21.4394C10.5826 21.31 10.7304 21.1862 10.8726 21.0593C10.9692 21.044 11.0448 21.0801 11.1079 21.1499C11.1379 21.1862 11.1715 21.2193 11.2017 21.2555C11.3254 21.3976 11.3223 21.4791 11.1833 21.6085C11.0416 21.7416 10.8963 21.8746 10.7548 22.0075C10.0665 22.6507 9.37899 23.2947 8.69223 23.9395C8.48393 24.1326 8.27601 24.3233 8.07071 24.5163C7.95293 24.6278 7.84088 24.7425 7.72323 24.8547C7.66871 24.8999 7.61471 24.9423 7.56319 24.9902C7.45167 25.0961 7.34014 25.2046 7.22797 25.3131L6.88714 25.6275L6.50954 25.9715C6.42188 25.8722 6.33123 25.7723 6.24658 25.6699C6.19871 25.6184 6.15945 25.5521 6.11719 25.4916ZM13.5357 20.105C13.4511 19.9751 13.448 19.972 13.5565 19.8456C13.7436 19.625 13.9371 19.4104 14.1272 19.1934C14.1572 19.1569 14.1817 19.1268 14.1512 19.0784C13.9673 18.7888 13.904 18.4653 13.904 18.1245C13.904 18.1184 13.904 18.1122 13.901 18.1062C13.9158 17.9737 13.9158 17.9737 13.798 17.9341C13.3966 17.8015 12.9951 17.6685 12.5937 17.5354C12.3616 17.4608 12.129 17.3874 11.8961 17.3154C11.7814 17.2278 11.7784 17.1946 11.8716 17.0887C12.3398 16.5603 12.8076 16.0319 13.282 15.5035C13.3274 15.4521 13.3996 15.419 13.4629 15.395C13.5627 15.3589 13.6651 15.3375 13.7681 15.3105C13.7802 15.3074 13.792 15.3074 13.8042 15.3044C14.3295 15.1775 14.8548 15.0537 15.377 14.9268C15.4003 14.9208 15.4214 14.9083 15.4377 14.8906C15.5707 14.7398 15.7031 14.5859 15.8361 14.4315C16.1652 14.0545 16.5066 13.6862 16.8898 13.3601C17.1405 13.1455 17.3912 12.931 17.6419 12.7197C17.8018 12.6019 17.9557 12.4842 18.1156 12.3666C18.7953 11.8713 19.5076 11.4397 20.2776 11.1014C20.5374 10.9867 20.8058 10.8901 21.0719 10.7814C21.0897 10.7784 21.1049 10.7753 21.1228 10.7691C21.6566 10.5914 22.2086 10.4741 22.7685 10.4192C22.7869 10.4192 22.8048 10.4222 22.823 10.4222C23.0977 10.4283 23.3723 10.4283 23.647 10.4401C23.8074 10.4492 23.8074 10.4615 23.8497 10.6368C23.8705 11.0137 23.8497 11.3943 23.7891 11.7658C23.6107 12.8042 23.2092 13.7585 22.6687 14.6552C21.7995 16.1012 20.6882 17.3394 19.4022 18.4206C19.3513 18.4601 19.3168 18.5171 19.3054 18.5805C19.1724 19.2083 19.0399 19.8396 18.9008 20.4672C18.8886 20.5218 18.8617 20.5703 18.8223 20.6094C18.2816 21.0965 17.7381 21.5806 17.1919 22.0615C17.1589 22.0889 17.1044 22.0889 17.0558 22.1038C17.0258 22.0498 16.9897 22.0014 16.9713 21.9469C16.8781 21.6753 16.7904 21.4032 16.6998 21.1285C16.5998 20.8147 16.4976 20.4978 16.3977 20.1834C16.3945 20.1717 16.3798 20.1625 16.3707 20.1534C16.3615 19.9934 16.3584 19.9934 16.2076 20.0086C15.8209 20.051 15.4377 20.0386 15.0632 19.9088C15.0057 19.888 14.9725 19.9027 14.9301 19.945C14.7192 20.1657 14.5017 20.3827 14.2871 20.6033C14.1848 20.7088 14.1542 20.7057 14.0488 20.6033C13.8761 20.4389 13.705 20.2728 13.5357 20.105ZM17.8896 16.0319L17.9073 16.0565C17.9164 16.0773 17.9317 16.0956 17.9464 16.1135C18.2909 16.4487 18.7017 16.5635 19.1724 16.4665C19.3507 16.4304 19.5168 16.358 19.6554 16.2342C19.9484 16.0081 20.1054 15.706 20.1359 15.3405C20.1568 15.0868 20.1207 14.8392 19.9815 14.6161C19.9759 14.6007 19.9698 14.5891 19.9636 14.5768C19.4745 13.7555 18.2578 13.7616 17.7804 14.5915C17.5782 14.9421 17.5481 15.3135 17.6933 15.6967C17.7595 15.8089 17.8228 15.9204 17.8896 16.0319Z" fill="#FEFEFE"/>
<path d="M19.6445 16.2435C19.5055 16.3672 19.3424 16.4395 19.1641 16.4727C18.6994 16.5695 18.2888 16.4548 17.9443 16.1226C17.9297 16.1045 17.9166 16.0853 17.9051 16.0651L17.8873 16.0411V16.0442C17.8806 16.0196 17.8724 15.9954 17.8628 15.9718C17.712 15.6911 17.685 15.395 17.7844 15.0929C17.8471 14.9044 17.9598 14.7364 18.1105 14.6068C18.4157 14.3414 18.7686 14.263 19.1554 14.3654C19.3577 14.4199 19.5268 14.5345 19.6715 14.6915C19.9946 15.0389 20.0608 15.5789 19.8193 15.9835C19.7653 16.0712 19.7016 16.1559 19.6445 16.2435Z" fill="#FECAA8"/>
<path d="M19.9678 14.6338C19.9495 14.625 19.9255 14.622 19.9133 14.6066C19.6778 14.3351 19.388 14.1838 19.0257 14.1568C18.7204 14.1329 18.4459 14.2083 18.2043 14.3866C17.8996 14.6096 17.7152 14.9088 17.6969 15.2919C17.6913 15.4158 17.706 15.5426 17.709 15.6664C17.709 15.6787 17.6999 15.6909 17.6943 15.7027C17.546 15.3226 17.5791 14.9541 17.7814 14.6066C18.2558 13.7823 19.4664 13.7761 19.9555 14.5914C19.9587 14.6066 19.9647 14.619 19.9678 14.6338Z" fill="#FE7837"/>
</g>
<defs>
<linearGradient id="paint0_linear_972_361" x1="0.465378" y1="33.2437" x2="33.1553" y2="0.956671" gradientUnits="userSpaceOnUse">
<stop stop-color="#FFD275"/>
<stop offset="0.132" stop-color="#FECA74"/>
<stop offset="0.358" stop-color="#FBB570"/>
<stop offset="0.652" stop-color="#F79569"/>
<stop offset="1" stop-color="#F2665F"/>
</linearGradient>
<linearGradient id="paint1_linear_972_361" x1="0.465378" y1="33.2437" x2="33.1553" y2="0.956671" gradientUnits="userSpaceOnUse">
<stop stop-color="#FFD275"/>
<stop offset="0.132" stop-color="#FECA74"/>
<stop offset="0.358" stop-color="#FBB570"/>
<stop offset="0.652" stop-color="#F79569"/>
<stop offset="1" stop-color="#F2665F"/>
</linearGradient>
<clipPath id="clip0_972_361">
<rect width="32.6087" height="32.6087" fill="white" transform="translate(0.608398 0.695557)"/>
</clipPath>
</defs>
</svg>
