<svg width="12" height="16" viewBox="0 0 12 16" fill="none" xmlns="http://www.w3.org/2000/svg">
<g clip-path="url(#clip0_973_523)">
<path d="M5.34993 1.57957L0.817602 6.11189C0.461841 6.46766 0.461841 7.04446 0.817602 7.40022C1.17336 7.75598 1.75017 7.75598 2.10593 7.40022L6.63828 2.86789C6.99404 2.51213 6.99404 1.93533 6.63828 1.57957C6.28252 1.2238 5.70567 1.2238 5.34993 1.57957Z" fill="black"/>
<path d="M9.12535 5.35422L4.59299 9.88655C4.23723 10.2423 4.23723 10.8191 4.59299 11.1749C4.94875 11.5306 5.52556 11.5306 5.88132 11.1749L10.4137 6.64253C10.7694 6.28679 10.7694 5.70998 10.4137 5.35422C10.0579 4.99846 9.48111 4.99846 9.12535 5.35422Z" fill="black"/>
<path d="M5.87728 4.82566L1.34495 9.35796C0.989185 9.71372 0.989185 10.2906 1.34495 10.6463C1.70071 11.0021 2.27751 11.0021 2.63327 10.6463L7.16559 6.11398C7.52135 5.75822 7.52135 5.18142 7.16559 4.82566C6.80983 4.4699 6.23304 4.4699 5.87728 4.82566Z" fill="black"/>
<path d="M9.65169 8.60032L5.11936 13.1326C4.7636 13.4884 4.7636 14.0652 5.11936 14.421C5.47512 14.7767 6.0519 14.7767 6.40766 14.421L10.94 9.88863C11.2958 9.53287 11.2958 8.95608 10.94 8.60032C10.5842 8.24456 10.0074 8.24456 9.65169 8.60032Z" fill="black"/>
</g>
<defs>
<clipPath id="clip0_973_523">
<rect width="11.413" height="14.1304" fill="white" transform="translate(0.173828 0.934814)"/>
</clipPath>
</defs>
</svg>
