<svg width="150" height="150" viewBox="0 0 150 150" fill="none" xmlns="http://www.w3.org/2000/svg">
<rect x="1.1721" y="0.603252" width="148.194" height="148.194" rx="74.0969" fill="white" fill-opacity="0.3"/>
<rect x="1.1721" y="0.603252" width="148.194" height="148.194" rx="74.0969" stroke="url(#paint0_linear_945_576)" stroke-width="0.99459"/>
<path d="M115.005 75.6649L48.9272 113.822C48.5947 114.013 48.1913 114.013 47.8642 113.822L43.269 111.162C43.0836 111.053 42.9692 110.862 42.9692 110.644C42.9692 110.426 43.0782 110.23 43.269 110.127L76.0136 91.2059C76.139 91.1405 76.2916 91.1187 76.417 91.1841C76.5478 91.2495 76.6405 91.3585 76.6732 91.5057C76.8694 92.4814 77.0493 93.4681 77.1965 94.4602C77.2074 94.5419 77.2619 94.6128 77.3382 94.6564C77.4091 94.6946 77.5017 94.6891 77.5781 94.6455L114.427 73.3645C114.716 73.201 115.065 73.201 115.354 73.3645C115.637 73.528 115.817 73.8387 115.817 74.1713V74.2476C115.817 74.8308 115.507 75.3705 115.005 75.6649ZM115.359 86.1255C115.071 85.9619 114.722 85.9619 114.433 86.1255L77.9978 107.167C77.916 107.216 77.8125 107.216 77.7307 107.161C77.6435 107.107 77.6053 107.019 77.6108 106.921C77.698 105.798 77.7579 104.654 77.7797 103.503H77.7688C77.7688 103.384 77.7089 103.285 77.6162 103.225C77.5181 103.166 77.3982 103.166 77.2946 103.225L54.2911 116.51C54.1057 116.619 53.9913 116.81 53.9913 117.028C53.9913 117.246 54.1003 117.436 54.2911 117.545L58.8863 120.206C59.2079 120.396 59.6168 120.396 59.9493 120.206L114.994 88.4095C115.496 88.1206 115.806 87.5809 115.806 86.9976V86.9213C115.806 86.5888 115.632 86.2835 115.343 86.1146L115.359 86.1255ZM115.327 98.9246C115.027 98.7502 114.656 98.7502 114.351 98.9246L74.7598 121.786C74.6617 121.841 74.5527 121.83 74.46 121.765C74.3674 121.699 74.351 121.579 74.3892 121.476C74.9125 120.064 75.3758 118.619 75.7901 117.148C75.8065 117.088 75.7847 117.033 75.7356 116.995C75.6865 116.962 75.6266 116.957 75.5721 116.984L65.3186 122.909C65.1332 123.018 65.0188 123.209 65.0188 123.422C65.0188 123.634 65.1278 123.836 65.3186 123.94L69.9138 126.6C70.2355 126.79 70.6443 126.79 70.9768 126.6L114.983 101.181C115.485 100.892 115.796 100.353 115.796 99.7695C115.796 99.4261 115.61 99.099 115.305 98.93H115.31L115.327 98.9246ZM25.7111 50.7643L71.2385 24.4683C71.5383 24.2994 71.7127 23.9777 71.7018 23.6398C71.6909 23.3018 71.5001 22.9911 71.1948 22.833C70.7042 22.5877 70.1155 22.5986 69.6467 22.8712L25.7111 48.2459C25.444 48.3986 25.2695 48.6929 25.2695 49.0036V50.5081C25.2695 50.6117 25.324 50.7044 25.4167 50.7643C25.5094 50.8188 25.6184 50.8188 25.7111 50.7643ZM41.9008 51.3094C40.4671 50.7861 39.0008 50.3337 37.5126 49.9303C37.3709 49.8922 37.2128 49.9085 37.0875 49.9848L25.722 56.5479C25.4549 56.7006 25.2804 56.9949 25.2804 57.3056V63.2637C25.2804 63.3672 25.3349 63.4599 25.4276 63.5199C25.5203 63.5798 25.6239 63.5744 25.7165 63.5199L82.3695 30.8079C82.6585 30.6444 82.8329 30.3283 82.8329 30.0012C82.8329 29.6741 82.6585 29.3634 82.3695 29.1944L82.3041 29.1563C81.8026 28.8674 81.1812 28.8674 80.6743 29.1563L42.375 51.2658C42.2333 51.3476 42.0534 51.364 41.9062 51.304L41.9008 51.3094ZM53.5388 57.2021C52.5413 56.537 51.5274 55.9102 50.4862 55.3105C50.3118 55.2124 50.0992 55.2124 49.9247 55.3105L25.7111 69.2925C25.444 69.4452 25.2695 69.7395 25.2695 70.0502V76.0083C25.2695 76.1118 25.324 76.2045 25.4167 76.2645C25.5094 76.319 25.6129 76.319 25.7056 76.2645L93.2663 37.2402C93.5552 37.0767 93.7296 36.766 93.7296 36.4335C93.7296 36.1009 93.5552 35.7957 93.2663 35.6267L93.2008 35.5885C92.6993 35.2996 92.0779 35.2996 91.571 35.5885L54.1275 57.213C53.9422 57.322 53.7132 57.3111 53.5388 57.1912V57.2021ZM107.837 37.2784C101.089 37.2784 94.302 41.3067 91.5492 48.3386L63.1491 64.7354C62.9256 64.8608 62.6476 64.8227 62.4677 64.6373C61.759 63.9069 61.034 63.1928 60.2818 62.5005C60.1019 62.337 59.8348 62.3043 59.6222 62.4296L25.7111 82.0263C25.444 82.1789 25.2695 82.4732 25.2695 82.784V88.742C25.2695 88.8456 25.324 88.9382 25.4167 88.9982C25.5094 89.0581 25.6129 89.0527 25.7056 88.9982L105.242 43.0674C105.52 42.9039 105.864 42.9039 106.131 43.0674L110.126 45.3732C110.241 45.4386 110.317 45.564 110.317 45.6948C110.317 45.8311 110.246 45.951 110.126 46.0164L90.7151 57.2293C90.6061 57.2893 90.5516 57.4092 90.568 57.5291C90.7533 58.6793 91.0531 59.7913 91.4456 60.8543C91.4947 60.9906 91.4456 61.1432 91.3148 61.2195L69.7721 73.6643C69.6631 73.7243 69.5268 73.6916 69.4505 73.588C68.9163 72.7376 68.3494 71.8927 67.7661 71.0696C67.6026 70.8352 67.281 70.7698 67.0302 70.9061L25.7111 94.7763C25.444 94.929 25.2695 95.2233 25.2695 95.534V100.086C25.2695 100.522 25.5039 100.92 25.8801 101.138C26.1472 101.29 26.4851 101.29 26.7522 101.138L115.24 50.0284C115.354 49.963 115.496 49.963 115.616 50.0284C115.73 50.0939 115.806 50.2192 115.806 50.3501V54.929C115.812 55.2506 115.643 55.5558 115.359 55.7139L95.7356 67.074C95.6865 67.0958 95.6593 67.1448 95.6538 67.2048C95.6484 67.2593 95.6647 67.3138 95.7083 67.352C96.5096 68.126 97.3818 68.8183 98.3194 69.4288C98.4066 69.4833 98.4557 69.5814 98.4502 69.685C98.4502 69.7886 98.3903 69.8813 98.303 69.9303L74.7053 83.558C74.6399 83.5962 74.5582 83.6071 74.4873 83.5798C74.4164 83.5526 74.3619 83.4981 74.3347 83.4272C73.9912 82.5169 73.6315 81.6229 73.2444 80.7398C73.1845 80.6035 73.07 80.5 72.9228 80.4509C72.7811 80.4018 72.623 80.4236 72.4977 80.4945L32.2578 103.727C32.0616 103.836 31.9471 104.049 31.9471 104.272C31.9471 104.496 32.067 104.708 32.2578 104.817L36.8095 107.445C37.1311 107.635 37.5399 107.635 37.8724 107.445L115.256 62.7622C115.37 62.6967 115.512 62.6967 115.632 62.7622C115.752 62.8276 115.823 62.9529 115.823 63.0892V67.5918C115.828 67.9134 115.659 68.2187 115.376 68.3768L109.172 71.9581C109.151 71.9745 109.134 72.0072 109.145 72.0344C109.156 72.0617 109.183 72.0835 109.211 72.0835C111.582 71.9091 113.822 71.2604 115.834 70.2301C121.443 67.3247 125.264 61.4702 125.264 54.7218H125.27C125.28 45.0843 117.469 37.2784 107.837 37.2784Z" fill="url(#paint1_radial_945_576)"/>
<defs>
<linearGradient id="paint0_linear_945_576" x1="75.269" y1="0.105957" x2="75.269" y2="149.294" gradientUnits="userSpaceOnUse">
<stop stop-color="white"/>
<stop offset="1" stop-color="white" stop-opacity="0.5"/>
</linearGradient>
<radialGradient id="paint1_radial_945_576" cx="0" cy="0" r="1" gradientUnits="userSpaceOnUse" gradientTransform="translate(24.647 100.169) rotate(-30.9986) scale(125.953 130.988)">
<stop stop-color="#5000BF"/>
<stop offset="0.04" stop-color="#6900C2"/>
<stop offset="0.12" stop-color="#9700C7"/>
<stop offset="0.2" stop-color="#BC00CC"/>
<stop offset="0.27" stop-color="#D900D0"/>
<stop offset="0.35" stop-color="#EE00D2"/>
<stop offset="0.43" stop-color="#FA00D4"/>
<stop offset="0.5" stop-color="#FF00D5"/>
<stop offset="0.56" stop-color="#FB26E2"/>
<stop offset="0.65" stop-color="#F55DF7"/>
<stop offset="0.7" stop-color="#F373FF"/>
<stop offset="0.8" stop-color="#EABFFF"/>
<stop offset="0.9" stop-color="#99CCFF"/>
</radialGradient>
</defs>
</svg>
