<svg width="25" height="27" viewBox="0 0 25 27" fill="none" xmlns="http://www.w3.org/2000/svg">
<path d="M22.4339 13.4845L5.91442 23.0239C5.83129 23.0716 5.73044 23.0716 5.64868 23.0239L4.49986 22.3589C4.45353 22.3316 4.42491 22.2839 4.42491 22.2294C4.42491 22.1749 4.45217 22.1258 4.49986 22.0999L12.686 17.3698C12.7174 17.3534 12.7555 17.348 12.7869 17.3643C12.8196 17.3807 12.8427 17.4079 12.8509 17.4447C12.9 17.6887 12.9449 17.9353 12.9817 18.1833C12.9845 18.2038 12.9981 18.2215 13.0172 18.2324C13.0349 18.2419 13.0581 18.2406 13.0771 18.2297L22.2894 12.9094C22.3617 12.8685 22.4489 12.8685 22.5211 12.9094C22.592 12.9503 22.637 13.028 22.637 13.1111V13.1302C22.637 13.276 22.5593 13.4109 22.4339 13.4845ZM22.5225 16.0997C22.4503 16.0588 22.363 16.0588 22.2908 16.0997L13.1821 21.36C13.1616 21.3722 13.1357 21.3722 13.1153 21.3586C13.0935 21.345 13.0839 21.3232 13.0853 21.2986C13.1071 21.0179 13.1221 20.7317 13.1276 20.4442H13.1248C13.1248 20.4142 13.1098 20.3897 13.0867 20.3747C13.0621 20.3597 13.0322 20.3597 13.0063 20.3747L7.25538 23.6957C7.20905 23.723 7.18043 23.7707 7.18043 23.8252C7.18043 23.8797 7.20768 23.9274 7.25538 23.9547L8.4042 24.6197C8.4846 24.6674 8.58681 24.6674 8.66994 24.6197L22.4312 16.6707C22.5566 16.5984 22.6342 16.4635 22.6342 16.3177V16.2986C22.6342 16.2155 22.5906 16.1392 22.5184 16.0969L22.5225 16.0997ZM22.5143 19.2994C22.4394 19.2558 22.3467 19.2558 22.2704 19.2994L12.3726 25.0149C12.348 25.0285 12.3208 25.0258 12.2976 25.0095C12.2745 24.9931 12.2704 24.9631 12.2799 24.9372C12.4107 24.5843 12.5266 24.2231 12.6301 23.8552C12.6342 23.8402 12.6288 23.8266 12.6165 23.817C12.6043 23.8089 12.5893 23.8075 12.5756 23.8143L10.0123 25.2956C9.96593 25.3229 9.93731 25.3706 9.93731 25.4237C9.93731 25.4769 9.96457 25.5273 10.0123 25.5532L11.1611 26.2182C11.2415 26.2659 11.3437 26.2659 11.4268 26.2182L22.4285 19.8636C22.5538 19.7914 22.6315 19.6565 22.6315 19.5107C22.6315 19.4248 22.5852 19.3431 22.5089 19.3008H22.5102L22.5143 19.2994ZM0.110384 7.25938L11.4922 0.685385C11.5672 0.643139 11.6108 0.562735 11.6081 0.478244C11.6053 0.393752 11.5576 0.316074 11.4813 0.276554C11.3587 0.215229 11.2115 0.217955 11.0943 0.286093L0.110384 6.62978C0.0436086 6.66794 0 6.74153 0 6.81921V7.19533C0 7.22122 0.0136277 7.24439 0.0367948 7.25938C0.0599618 7.27301 0.0872172 7.27301 0.110384 7.25938ZM4.15781 7.39566C3.7994 7.26483 3.43281 7.15172 3.06078 7.05088C3.02535 7.04134 2.98583 7.04543 2.95448 7.06451L0.11311 8.70528C0.0463341 8.74344 0.00272554 8.81703 0.00272554 8.8947V10.3842C0.00272554 10.4101 0.0163532 10.4333 0.0395203 10.4483C0.0626874 10.4633 0.08858 10.4619 0.111747 10.4483L14.275 2.27028C14.3472 2.2294 14.3908 2.15036 14.3908 2.0686C14.3908 1.98683 14.3472 1.90915 14.275 1.86691L14.2587 1.85737C14.1333 1.78514 13.9779 1.78514 13.8512 1.85737L4.27637 7.38476C4.24094 7.4052 4.19597 7.40929 4.15917 7.3943L4.15781 7.39566ZM7.06732 8.86881C6.81793 8.70255 6.56446 8.54584 6.30417 8.39593C6.26056 8.3714 6.20741 8.3714 6.1638 8.39593L0.110384 11.8914C0.0436086 11.9296 0 12.0032 0 12.0809V13.5704C0 13.5963 0.0136277 13.6194 0.0367948 13.6344C0.0599618 13.648 0.0858544 13.648 0.109022 13.6344L16.9992 3.87835C17.0714 3.83747 17.115 3.75979 17.115 3.67666C17.115 3.59353 17.0714 3.51722 16.9992 3.47497L16.9828 3.46543C16.8575 3.39321 16.7021 3.39321 16.5754 3.46543L7.2145 8.87154C7.16816 8.89879 7.11093 8.89607 7.06732 8.86609V8.86881ZM20.6419 3.88789C18.9548 3.88789 17.2581 4.89498 16.5699 6.65295L9.46988 10.7522C9.41401 10.7835 9.34451 10.774 9.29954 10.7276C9.12238 10.545 8.94113 10.3665 8.75307 10.1934C8.70809 10.1525 8.64132 10.1444 8.58817 10.1757L0.110384 15.0749C0.0436086 15.113 0 15.1866 0 15.2643V16.7538C0 16.7797 0.0136277 16.8029 0.0367948 16.8178C0.0599618 16.8328 0.0858544 16.8315 0.109022 16.8178L19.9932 5.33515C20.0627 5.29427 20.1485 5.29427 20.2153 5.33515L21.2142 5.9116C21.2428 5.92796 21.2619 5.9593 21.2619 5.99201C21.2619 6.02608 21.2442 6.05606 21.2142 6.07241L16.3614 8.87563C16.3341 8.89062 16.3205 8.9206 16.3246 8.95058C16.3709 9.23812 16.4459 9.51613 16.544 9.78187C16.5563 9.81594 16.544 9.8541 16.5113 9.87317L11.1256 12.9844C11.0984 12.9994 11.0643 12.9912 11.0452 12.9653C10.9117 12.7527 10.77 12.5415 10.6241 12.3357C10.5833 12.2771 10.5029 12.2607 10.4402 12.2948L0.110384 18.2624C0.0436086 18.3005 0 18.3741 0 18.4518V19.5897C0 19.6987 0.0585991 19.7982 0.15263 19.8527C0.219406 19.8909 0.303897 19.8909 0.370673 19.8527L22.4925 7.07541C22.5211 7.05905 22.5566 7.05905 22.5865 7.07541C22.6152 7.09176 22.6342 7.12311 22.6342 7.15581V8.30054C22.6356 8.38094 22.5933 8.45726 22.5225 8.49678L17.6165 11.3368C17.6042 11.3422 17.5974 11.3545 17.5961 11.3695C17.5947 11.3831 17.5988 11.3967 17.6097 11.4063C17.81 11.5998 18.0281 11.7729 18.2625 11.9255C18.2843 11.9391 18.2965 11.9637 18.2952 11.9896C18.2952 12.0154 18.2802 12.0386 18.2584 12.0509L12.359 15.4578C12.3426 15.4673 12.3222 15.4701 12.3044 15.4633C12.2867 15.4564 12.2731 15.4428 12.2663 15.4251C12.1804 15.1975 12.0905 14.974 11.9937 14.7532C11.9787 14.7192 11.9501 14.6933 11.9133 14.681C11.8779 14.6688 11.8384 14.6742 11.807 14.6919L1.74707 20.5C1.69801 20.5273 1.66939 20.5805 1.66939 20.6363C1.66939 20.6922 1.69937 20.7453 1.74707 20.7726L2.88498 21.4295C2.96539 21.4772 3.06759 21.4772 3.15072 21.4295L22.4966 10.2588C22.5252 10.2425 22.5606 10.2425 22.5906 10.2588C22.6206 10.2752 22.6383 10.3065 22.6383 10.3406V11.4663C22.6397 11.5467 22.5974 11.623 22.5266 11.6625L20.9757 12.5578C20.9703 12.5619 20.9662 12.5701 20.9689 12.5769C20.9717 12.5837 20.9785 12.5892 20.9853 12.5892C21.5781 12.5456 22.1382 12.3834 22.641 12.1258C24.0433 11.3995 24.9986 9.93586 24.9986 8.24875H25C25.0027 5.83938 23.0499 3.88789 20.6419 3.88789Z" fill="url(#paint0_radial_1438_649)"/>
<defs>
<radialGradient id="paint0_radial_1438_649" cx="0" cy="0" r="1" gradientUnits="userSpaceOnUse" gradientTransform="translate(-0.155621 19.6107) rotate(-30.9986) scale(31.4883 32.7471)">
<stop stop-color="#5000BF"/>
<stop offset="0.04" stop-color="#6900C2"/>
<stop offset="0.12" stop-color="#9700C7"/>
<stop offset="0.2" stop-color="#BC00CC"/>
<stop offset="0.27" stop-color="#D900D0"/>
<stop offset="0.35" stop-color="#EE00D2"/>
<stop offset="0.43" stop-color="#FA00D4"/>
<stop offset="0.5" stop-color="#FF00D5"/>
<stop offset="0.56" stop-color="#FB26E2"/>
<stop offset="0.65" stop-color="#F55DF7"/>
<stop offset="0.7" stop-color="#F373FF"/>
<stop offset="0.8" stop-color="#EABFFF"/>
<stop offset="0.9" stop-color="#99CCFF"/>
</radialGradient>
</defs>
</svg>
