<svg width="26" height="26" viewBox="0 0 26 26" fill="none" xmlns="http://www.w3.org/2000/svg">
<rect x="0.213867" y="0.804443" width="25" height="25" rx="12.5" fill="#F3A31A"/>
<path d="M11.7975 20.9758L6.53323 14.8526C6.43435 14.7382 6.56813 14.5714 6.70192 14.6451L10.2424 16.5666C10.4092 16.6577 10.5391 16.8051 10.605 16.9835L12.0301 20.842C12.0805 20.9816 11.8963 21.0921 11.7975 20.9758Z" fill="white"/>
<path d="M12.558 19.5679L11.1057 12.388C11.0844 12.2814 11.1057 12.1689 11.1639 12.0778L13.6981 8.11071C13.7485 8.03122 13.8726 8.07387 13.8629 8.16888L12.7345 19.5602C12.7267 19.6629 12.5793 19.6687 12.558 19.5679Z" fill="white"/>
<path d="M13.8165 17.4525L16.6028 13.3982C16.6978 13.2605 16.8645 13.1888 17.0313 13.214L18.8132 13.4835C18.9276 13.5009 18.9663 13.6464 18.8752 13.7181L13.9561 17.5843C13.8689 17.6522 13.7545 17.5456 13.8165 17.4525Z" fill="white"/>
<path d="M14.2339 14.6742L15.6591 5.66388C15.6746 5.57081 15.8025 5.55918 15.8336 5.64837L17.0978 9.32847C17.1346 9.43899 17.1268 9.55921 17.0726 9.66197L14.4026 14.7304C14.3542 14.8196 14.2165 14.775 14.2339 14.6742Z" fill="white"/>
<path d="M8.12349 12.8961L8.44147 10.6333C8.45505 10.5403 8.58302 10.5228 8.61986 10.6101L10.5859 15.1937C10.6247 15.2868 10.5103 15.3682 10.4366 15.2984L8.24176 13.2354C8.15063 13.1481 8.1041 13.0202 8.12349 12.8961Z" fill="white"/>
</svg>
