<svg width="33" height="33" viewBox="0 0 33 33" fill="none" xmlns="http://www.w3.org/2000/svg">
<g clip-path="url(#clip0_973_568)">
<path fill-rule="evenodd" clip-rule="evenodd" d="M25.0005 1.04262C25.6112 1.11341 25.9982 1.73274 25.7941 2.31262L22.808 10.798C22.5414 11.5556 21.517 11.6689 21.0914 10.9877L20.4541 9.96783L8.92973 17.1691L7.74448 15.2723C5.85142 12.2428 6.77271 8.2522 9.80225 6.35914L15.8411 2.5856L15.1418 1.46649C14.7163 0.785386 15.2671 -0.0856916 16.0649 0.00679063L25.0005 1.04262ZM12.9183 20.7174C8.75486 23.1212 7.3283 28.4451 9.73214 32.6086L21.4582 25.8386C24.552 24.0523 25.6119 20.0964 23.8258 17.0027L22.7075 15.0656L12.9183 20.7174Z" fill="#07C166"/>
</g>
<defs>
<clipPath id="clip0_973_568">
<rect width="32.6087" height="32.6087" fill="white"/>
</clipPath>
</defs>
</svg>
