<svg width="151" height="151" viewBox="0 0 151 151" fill="none" xmlns="http://www.w3.org/2000/svg">
<rect x="0.689453" y="0.631348" width="149" height="149" rx="74.5" fill="white" fill-opacity="0.3"/>
<rect x="0.689453" y="0.631348" width="149" height="149" rx="74.5" stroke="url(#paint0_linear_945_545)"/>
<rect x="21.6895" y="21.6313" width="107" height="107" rx="53.5" fill="black"/>
<path d="M95.8146 88.909C94.7607 90.7446 93.2411 92.2695 91.4092 93.3298C89.5773 94.3901 87.498 94.9482 85.3814 94.9477H78.4135V71.4515L68.3565 88.9148C67.3024 90.7501 65.7827 92.2748 63.9509 93.3349C62.119 94.3949 60.0399 94.9529 57.9234 94.9524H51.0024V60.2776H64.9218V83.7152L78.4123 60.2893V60.2776H92.3271V83.8113L106.945 58.4131C107.238 57.9077 107.387 57.332 107.377 56.7479C107.367 56.1639 107.197 55.5937 106.886 55.099C100.145 44.4525 88.1916 37.4318 74.6096 37.6357C53.8992 37.9579 37.5845 54.6268 37.69 75.3351C37.7978 95.952 54.5496 112.631 75.1897 112.631C95.831 112.631 112.689 95.8442 112.689 75.1359C112.689 71.8007 112.249 68.5663 111.427 65.4831C111.18 64.5479 109.933 64.3768 109.449 65.2089L95.8087 88.9043L95.8146 88.909Z" fill="white"/>
<defs>
<linearGradient id="paint0_linear_945_545" x1="75.1895" y1="0.131348" x2="75.1895" y2="150.131" gradientUnits="userSpaceOnUse">
<stop stop-color="white"/>
<stop offset="1" stop-color="white" stop-opacity="0.5"/>
</linearGradient>
</defs>
</svg>
