<svg width="26" height="26" viewBox="0 0 26 26" fill="none" xmlns="http://www.w3.org/2000/svg">
<rect x="0.213867" y="0.804443" width="25" height="25" rx="12.5" fill="black"/>
<g clip-path="url(#clip0_1045_333)">
<path d="M17.2515 16.3357C17.0196 16.7395 16.6853 17.075 16.2823 17.3083C15.8793 17.5416 15.4218 17.6643 14.9562 17.6642H13.4232V12.4951L11.2107 16.337C10.9788 16.7408 10.6444 17.0762 10.2414 17.3094C9.83841 17.5426 9.381 17.6654 8.91537 17.6652H7.39273V10.0368H10.455V15.1931L13.423 10.0394V10.0368H16.4842V15.2142L19.7002 9.62665C19.7646 9.51547 19.7975 9.3888 19.7952 9.26031C19.7929 9.13182 19.7556 9.0064 19.6873 8.89756C18.2041 6.55533 15.5744 5.01078 12.5864 5.05564C8.03004 5.12654 4.44078 8.79366 4.46398 13.3495C4.4877 17.8852 8.17313 21.5546 12.714 21.5546C17.2551 21.5546 20.964 17.8614 20.964 13.3056C20.964 12.5719 20.867 11.8603 20.6863 11.182C20.6319 10.9763 20.3576 10.9387 20.2511 11.1217L17.2502 16.3347L17.2515 16.3357Z" fill="white"/>
</g>
<defs>
<clipPath id="clip0_1045_333">
<rect width="16.5" height="16.5" fill="white" transform="translate(4.46387 5.05444)"/>
</clipPath>
</defs>
</svg>
